<?xml version="1.0" encoding="UTF-8"?>
<svg version="1.1" xmlns="http://www.w3.org/2000/svg" width="1182" height="1028">
<path d="M0 0 C390.06 0 780.12 0 1182 0 C1182 339.24 1182 678.48 1182 1028 C791.94 1028 401.88 1028 0 1028 C0 688.76 0 349.52 0 0 Z " fill="#FEFEFE" transform="translate(0,0)"/>
<path d="M0 0 C390.06 0 780.12 0 1182 0 C1182 339.24 1182 678.48 1182 1028 C791.94 1028 401.88 1028 0 1028 C0 688.76 0 349.52 0 0 Z M464.73803711 70.06738281 C461.87033149 70.38237794 459.00095709 70.67642746 456.13085938 70.96875 C446.26512621 72.00255997 436.48003342 73.31709969 426.703125 75 C425.78003036 75.15850433 424.85693573 75.31700867 423.90586853 75.48031616 C416.20399326 76.8583839 408.70567053 78.81820965 401.171875 80.91015625 C397.6575692 81.8633363 394.16869668 82.53464997 390.5625 83.0625 C385.51398167 83.81172533 380.93936208 85.2354729 376.1328125 86.9296875 C372.78215128 88.07442712 369.41024959 89.04812814 366 90 C354.52354228 92.89383469 354.52354228 92.89383469 344 98 C343.67 97.34 343.34 96.68 343 96 C341.91203125 96.58007812 340.8240625 97.16015625 339.703125 97.7578125 C316.72112788 109.98758372 316.72112788 109.98758372 308.625 113.0625 C285.76439911 122.41592232 264.61655504 138.41045933 245.94628906 154.34619141 C244.13179848 155.88800766 242.30059199 157.4063428 240.4609375 158.91796875 C226.80968768 170.22900432 213.63694496 182.7773429 203 197 C202.5663916 197.5784668 202.1327832 198.15693359 201.68603516 198.75292969 C198.82974565 202.57509992 196.01407998 206.42479239 193.2265625 210.29736328 C192.17774285 211.75326859 191.12092726 213.20340805 190.0625 214.65234375 C176.45514082 233.58295225 164.27730601 255.22594024 156 277 C155.6302002 277.96921387 155.6302002 277.96921387 155.25292969 278.95800781 C153.94103254 282.40517527 152.64894954 285.85895192 151.375 289.3203125 C150.26652294 292.28674827 149.10004097 295.20595707 147.875 298.125 C145.40912251 304.26948161 143.68417992 310.60505768 142 317 C141.76490723 317.89122559 141.52981445 318.78245117 141.28759766 319.70068359 C138.29233795 331.15045895 135.51113652 342.55539674 133.640625 354.24609375 C133.17165348 356.99415247 132.63781943 359.6598621 132.01171875 362.37109375 C129.95477157 371.46734987 129.03357149 380.74279449 128 390 C127.85884766 391.20011719 127.71769531 392.40023438 127.57226562 393.63671875 C124.7667238 418.54383664 124.72837951 443.46923582 124.75 468.5 C124.7503336 469.34211281 124.75066719 470.18422562 124.75101089 471.05185699 C124.76497901 497.42707739 125.34406974 523.60610671 127.67456055 549.89404297 C127.94166328 552.92219928 128.19675404 555.95122302 128.45117188 558.98046875 C128.62168644 560.94277011 128.79288432 562.90501223 128.96484375 564.8671875 C129.03887924 565.75477753 129.11291473 566.64236755 129.18919373 567.55685425 C129.63509726 572.47511199 130.37100223 577.19035447 131.52603149 581.99342346 C132.31241952 585.3226484 132.86282807 588.69149465 133.4375 592.0625 C133.69739776 593.55217396 133.95782717 595.04175524 134.21875 596.53125 C134.34894531 597.27632812 134.47914063 598.02140625 134.61328125 598.7890625 C134.74089844 599.51867187 134.86851562 600.24828125 135 601 C135.11988281 601.68578125 135.23976562 602.3715625 135.36328125 603.078125 C137.14266586 613.16782234 139.31512698 623.10944706 142 633 C142.23702637 633.8765625 142.47405273 634.753125 142.71826172 635.65625 C150.93017532 665.67896488 162.02183648 695.76620363 178.81396484 722.13134766 C180.07763914 724.122324 181.31408443 726.12888867 182.55078125 728.13671875 C188.54743766 737.75637792 195.21752204 746.55598736 202.51464844 755.22216797 C203.86766407 756.84160582 205.1941528 758.47749408 206.5078125 760.12890625 C214.38722212 769.99875906 223.08832684 778.19439285 233 786 C234.02222656 786.81597656 235.04445313 787.63195312 236.09765625 788.47265625 C243.7474189 794.51983463 251.7049475 799.88292216 260 805 C260.60070312 805.37511719 261.20140625 805.75023437 261.8203125 806.13671875 C282.16544331 818.81995987 303.59110394 828.48489634 326.85644531 834.42211914 C329.18333796 835.04942608 331.47381651 835.76373849 333.7734375 836.484375 C339.44470058 838.20137784 345.17989303 839.34792338 351 840.4375 C352.12720459 840.64995361 353.25440918 840.86240723 354.41577148 841.08129883 C374.88939097 844.88218245 395.21213452 847.67345917 416 849 C416.06058594 849.82242188 416.12117188 850.64484375 416.18359375 851.4921875 C416.44654852 854.99555408 416.723093 858.49771147 417 862 C417.06058594 862.86882813 417.12117188 863.73765625 417.18359375 864.6328125 C418.79312257 884.5384138 426.40161601 899.63305602 439.14453125 914.6171875 C441 917 441 917 442 920 C441.28972656 920.10699219 440.57945312 920.21398437 439.84765625 920.32421875 C427.23307157 923.31780332 416.21997122 934.60373742 409.3125 945.1875 C406.76730645 949.81376356 406.08348424 953.7404931 406 959 C407.59183899 960.59183899 409.23445499 960.12599125 411.44140625 960.12698364 C412.40054932 960.12980347 413.35969238 960.13262329 414.34790039 960.13552856 C415.40871826 960.13350433 416.46953613 960.1314801 417.5625 960.12939453 C418.67294678 960.13114685 419.78339355 960.13289917 420.92749023 960.13470459 C424.61834246 960.13912572 428.30914724 960.13618419 432 960.1328125 C434.55208343 960.13348546 437.10416679 960.13445542 439.65625 960.13571167 C445.01302762 960.137189 450.36978805 960.13512756 455.7265625 960.13037109 C461.92783715 960.12492851 468.12907893 960.12669118 474.33035278 960.1321975 C480.28534215 960.13727437 486.24032127 960.13674707 492.1953125 960.13381577 C494.73437505 960.13314624 497.27343842 960.13397582 499.8125 960.13629532 C503.35418964 960.1388203 506.89581517 960.13498342 510.4375 960.12939453 C511.49831787 960.13141876 512.55913574 960.13344299 513.65209961 960.13552856 C514.61124268 960.13270874 515.57038574 960.12988892 516.55859375 960.12698364 C517.39704834 960.12660662 518.23550293 960.12622959 519.09936523 960.12584114 C521.01070494 960.20891062 521.01070494 960.20891062 522 959 C522.86344991 947.39362674 520.01126546 939.23149952 513 930 C505.13183897 921.44939643 495.5491637 915.02616907 484 913 C482.68 913 481.36 913 480 913 C479.9175 912.113125 479.835 911.22625 479.75 910.3125 C479.07360806 905.51977993 477.50724455 901.02039279 476.05078125 896.41796875 C472.58260082 885.1367127 470.90508248 874.33072077 470.4375 862.5625 C470.36212266 860.73358605 470.28646445 858.90468366 470.21058655 857.07579041 C470.15144624 855.6497872 470.15144624 855.6497872 470.09111118 854.19497585 C470.06104449 853.47063382 470.0309778 852.74629179 470 852 C470.79735502 852.02959745 471.59471004 852.05919491 472.41622734 852.08968925 C494.62632203 852.89180228 516.80662612 853.15137313 539.02992105 853.1343255 C543.48811807 853.13173405 547.94631337 853.13415673 552.4045105 853.13571167 C559.85170878 853.13750918 567.29889701 853.13518655 574.74609375 853.13037109 C583.33594207 853.12488073 591.92576683 853.12673503 600.51561463 853.1321975 C607.95412177 853.13673627 615.39262183 853.13737699 622.83112991 853.13475883 C627.24795983 853.13320693 631.66477863 853.1329734 636.08160782 853.13629532 C640.2105807 853.13918696 644.33952293 853.13717463 648.46849251 853.13140106 C649.97815843 853.13008266 651.48782696 853.13045191 652.99749184 853.13266373 C655.06241879 853.13541016 657.12724838 853.13195229 659.19216919 853.12698364 C660.34487368 853.12660662 661.49757816 853.12622959 662.68521309 853.12584114 C666.1812322 852.99311978 669.54744974 852.55256731 673 852 C671.85813151 870.94640681 670.33633008 887.88101495 663.3046875 905.6015625 C662.34833266 908.09266642 661.54118874 910.39965411 661 913 C660.27554688 912.96390625 659.55109375 912.9278125 658.8046875 912.890625 C647.39932405 913.3354024 636.48319391 922.08532044 629 930 C622.39908953 939.13555166 619.61937756 947.77163793 620 959 C621.58048529 960.58048529 623.17170572 960.12597951 625.36547852 960.12698364 C626.30779327 960.12980347 627.25010803 960.13262329 628.22097778 960.13552856 C629.26309418 960.13350433 630.30521057 960.1314801 631.37890625 960.12939453 C632.46984589 960.13114685 633.56078552 960.13289917 634.68478394 960.13470459 C638.31070521 960.13912563 641.93657818 960.13618422 645.5625 960.1328125 C648.06974293 960.13348547 650.57698581 960.13445543 653.08422852 960.13571167 C658.34684751 960.13718899 663.60945382 960.1351276 668.87207031 960.13037109 C674.96428202 960.12492851 681.05646026 960.12669118 687.14867115 960.1321975 C692.99901018 960.13727443 698.84933645 960.13674705 704.69967651 960.13381577 C707.19408167 960.13314624 709.68848768 960.13397579 712.18289185 960.13629532 C715.66231586 960.13882036 719.14167462 960.13498334 722.62109375 960.12939453 C723.66321014 960.13141876 724.70532654 960.13344299 725.77902222 960.13552856 C726.72133698 960.13270874 727.66365173 960.12988892 728.63452148 960.12698364 C729.45822739 960.12660662 730.28193329 960.12622959 731.13059998 960.12584114 C733.01436052 960.20497873 733.01436052 960.20497873 734 959 C734.43800849 949.57329557 730.54687249 943.21264756 724.6484375 936.20703125 C717.99410277 929.09140783 710.7708593 924.16466652 702 920 C701.34 920 700.68 920 700 920 C700.40089844 919.57332031 700.80179688 919.14664063 701.21484375 918.70703125 C710.86587054 908.09309023 717.33823139 897.45897711 722 884 C722.31710937 883.10410156 722.63421875 882.20820312 722.9609375 881.28515625 C726.38139309 870.83752704 727.14388384 859.89380023 728 849 C728.64396729 848.94054199 729.28793457 848.88108398 729.95141602 848.81982422 C760.61743325 845.91858764 791.55115684 842.35439902 821 833 C822.35279053 832.57267578 822.35279053 832.57267578 823.73291016 832.13671875 C846.61987472 824.78064428 868.10578388 814.48322619 888 801 C888.67853027 800.54077148 889.35706055 800.08154297 890.05615234 799.60839844 C910.75572834 785.50684176 929.75534107 769.00012294 945 749 C946.01028021 747.72802276 947.02212646 746.4572885 948.03515625 745.1875 C958.45304089 732.00414613 967.28785313 717.92939662 975 703 C975.3103418 702.40509766 975.62068359 701.81019531 975.94042969 701.19726562 C980.55871303 692.31425173 984.58832634 683.42584196 988 674 C988.77375882 671.9118693 989.55262839 669.82571673 990.33349609 667.74023438 C990.84423627 666.37531984 991.35255474 665.0094955 991.85791016 663.64257812 C992.96875733 660.6549398 994.12335394 657.73212683 995.45703125 654.8359375 C997.80078642 649.44165274 999.08305601 643.67597435 1000.5625 638 C1001.16755937 635.70822521 1001.77301687 633.41655549 1002.37890625 631.125 C1002.65895508 630.05773682 1002.93900391 628.99047363 1003.22753906 627.89086914 C1003.85583738 625.5395163 1004.51531509 623.20425847 1005.20703125 620.87109375 C1005.97285498 618.0982837 1006.17328126 615.85914086 1006 613 C1006.66 613 1007.32 613 1008 613 C1008.11593506 612.2479126 1008.23187012 611.4958252 1008.35131836 610.72094727 C1008.87581546 607.33412715 1009.40657147 603.94831759 1009.9375 600.5625 C1010.21110352 598.78649414 1010.21110352 598.78649414 1010.49023438 596.97460938 C1010.66748047 595.84990234 1010.84472656 594.72519531 1011.02734375 593.56640625 C1011.18968506 592.52427979 1011.35202637 591.48215332 1011.51928711 590.40844727 C1012 588 1012 588 1013 587 C1013.34863048 584.7321009 1013.63762998 582.45499957 1013.90234375 580.17578125 C1014.02628258 579.12900459 1014.02628258 579.12900459 1014.15272522 578.06108093 C1014.41839637 575.81201112 1014.67826642 573.56232015 1014.9375 571.3125 C1015.27758394 568.39164638 1015.62044812 565.47112943 1015.96484375 562.55078125 C1016.04980103 561.82557785 1016.1347583 561.10037445 1016.22229004 560.35319519 C1016.76055305 555.81922006 1017.38232602 551.30497905 1018.05859375 546.7890625 C1021.44420313 523.41555995 1021.18869935 499.64060386 1021.18758392 476.07603073 C1021.18750136 474.03368729 1021.18886155 471.99134802 1021.19024658 469.94900513 C1021.18847404 446.80930078 1020.81933815 423.69293391 1018.75268555 400.63427734 C1018.55719481 398.4404647 1018.37487438 396.24579049 1018.19335938 394.05078125 C1017.55653775 386.59364626 1016.6845378 379.30395017 1015 372 C1013.16364335 363.07780642 1011.46730092 354.17064667 1010.09008789 345.16601562 C1009.41712624 340.92096015 1008.41867937 337.07145157 1007 333 C1006.20845311 330.11487157 1005.48599348 327.21223061 1004.75 324.3125 C1002.96203706 317.40193513 1001.01767837 310.55912001 998.875 303.75 C998.63362305 302.97696533 998.39224609 302.20393066 998.14355469 301.4074707 C996.67535528 296.80955623 994.92949171 292.42917623 993 288 C992.13681653 285.62826224 991.28319056 283.25303136 990.4375 280.875 C981.27407256 256.07777486 967.80686446 233.12107411 952 212 C951.42572266 211.23107422 950.85144531 210.46214844 950.25976562 209.66992188 C944.19512354 201.59903062 938.16971676 193.69367539 930.8125 186.7421875 C929.20013434 185.1923705 927.81852728 183.62854122 926.4375 181.875 C923.85061029 178.82379676 921.06586795 176.3632014 918.02734375 173.77734375 C916.14964868 172.13119489 914.41872302 170.42264884 912.6875 168.625 C896.94324556 152.70424046 877.1003088 140.31934696 858.25 128.4375 C857.57001953 128.00743652 856.89003906 127.57737305 856.18945312 127.13427734 C853.48105837 125.44393655 851.04072502 124.01357501 848 123 C848 122.01 848 121.02 848 120 C846.989375 119.731875 845.97875 119.46375 844.9375 119.1875 C841.82725353 118.29796951 838.90322671 117.16744308 835.9453125 115.84765625 C833.67336641 114.85767171 831.37141555 113.96276524 829.0625 113.0625 C826.07521161 111.87919444 823.21053191 110.63352801 820.375 109.125 C816.02119296 106.89205738 811.46950235 105.2386149 806.88232422 103.56079102 C802.78972407 102.05937193 798.73016738 100.50073449 794.69140625 98.859375 C775.90207171 91.25020092 756.70202644 85.69581977 737 81 C735.64941856 80.66012732 734.29916554 80.31894729 732.94921875 79.9765625 C718.22762101 76.29831661 703.2817743 74.23589864 688.203125 72.64599609 C683.20706305 72.10353152 683.20706305 72.10353152 681 71 C679.50522822 70.80206582 678.00351417 70.65529686 676.50048828 70.53515625 C675.56415558 70.45837646 674.62782288 70.38159668 673.66311646 70.30249023 C672.64249115 70.22329346 671.62186584 70.14409668 670.5703125 70.0625 C669.51077362 69.97750244 668.45123474 69.89250488 667.35958862 69.80493164 C665.10170149 69.62478206 662.84364827 69.44670436 660.58544922 69.27050781 C657.20105248 69.00594512 653.81731252 68.73401825 650.43359375 68.4609375 C648.22920237 68.28600779 646.02477615 68.11151653 643.8203125 67.9375 C642.83612335 67.85830322 641.8519342 67.77910645 640.83792114 67.69750977 C624.59026337 66.44131466 608.37136077 65.83933111 592.078125 65.83203125 C590.31923398 65.82879561 588.56034319 65.82543011 586.80145264 65.82194519 C583.13423036 65.81601661 579.4670314 65.81409826 575.79980469 65.81469727 C572.13569105 65.81477769 568.47170469 65.80795864 564.80761719 65.79418945 C531.38170963 65.67084875 497.99121217 66.39990208 464.73803711 70.06738281 Z " fill="#FEFEFE" transform="translate(0,0)"/>
<path d="M0 0 C3.68438082 0.01095561 7.36872534 0.01046375 11.05311966 0.00986195 C14.68765256 0.0101367 18.32216271 0.01566225 21.95668793 0.02286339 C23.64830099 0.02597526 25.33991653 0.0279992 27.03153229 0.0287571 C42.70573866 0.04353469 58.38007699 0.53241777 73.97998047 2.13311768 C84.12922377 3.12198466 94.29024503 3.84448334 104.46630859 4.49810791 C105.61035156 4.5748877 106.75439453 4.65166748 107.93310547 4.73077393 C108.9556543 4.79659668 109.97820313 4.86241943 111.03173828 4.93023682 C113.47998047 5.19561768 113.47998047 5.19561768 115.47998047 6.19561768 C117.93867068 6.52463948 120.38888577 6.81048929 122.85498047 7.07061768 C146.73151423 9.77030263 169.94093254 14.15185304 192.87548828 21.40484619 C195.96392162 22.34255106 199.07455854 23.18485386 202.18701172 24.03936768 C209.51992582 26.1226998 216.53817207 28.78839469 223.60498047 31.63311768 C224.77673828 32.09782471 225.94849609 32.56253174 227.15576172 33.0413208 C247.15169497 40.99752732 247.15169497 40.99752732 256.10498047 45.32061768 C260.81643936 47.52911403 265.42189993 49.25033435 270.45654297 50.55499268 C272.47998047 51.19561768 272.47998047 51.19561768 275.47998047 53.19561768 C277.13547578 53.58061659 278.80222377 53.92354902 280.47998047 54.19561768 C280.47998047 55.18561768 280.47998047 56.17561768 280.47998047 57.19561768 C281.03613037 57.46422607 281.59228027 57.73283447 282.1652832 58.00958252 C294.83685677 64.50241075 307.24458731 72.45100545 318.47998047 81.19561768 C319.98625 82.32483643 319.98625 82.32483643 321.52294922 83.47686768 C332.48936819 91.72399825 343.0292024 100.46239044 352.59716797 110.31280518 C354.20554184 111.92117905 355.82379318 113.3499539 357.60498047 114.75811768 C360.62057585 117.3148181 363.08054208 120.0353129 365.63623047 123.03936768 C367.4989452 125.21779677 369.42247162 127.32906037 371.35498047 129.44561768 C376.08690245 134.7690299 380.28756385 140.44323208 384.47998047 146.19561768 C384.88506836 146.7437915 385.29015625 147.29196533 385.70751953 147.85675049 C391.80831669 156.11357605 397.31087728 164.58739346 402.46582031 173.46417236 C403.38543148 175.03419701 404.33163861 176.5885683 405.28076172 178.14093018 C421.60389229 205.08347673 433.80888143 237.70995603 439.76123047 268.62921143 C440.42423913 272.19047329 440.42423913 272.19047329 441.47998047 275.57843018 C442.67501741 279.90110285 443.33917054 284.20026218 443.97998047 288.63311768 C444.74331831 293.88840511 445.63286333 299.00868544 446.96069336 304.15093994 C449.16851217 312.84416162 450.12025265 321.55807304 450.85766602 330.47540283 C451.0375924 332.6368963 451.22972067 334.79703231 451.42333984 336.95733643 C453.47949151 360.65465513 453.68827741 384.42382842 453.66748047 408.19561768 C453.66721359 408.88321167 453.66694672 409.57080566 453.66667175 410.27923584 C453.65167299 441.15966544 452.26334362 471.37677148 447.92626953 501.97393799 C447.18303688 507.33919953 446.57706195 512.71954576 445.97216797 518.10186768 C445.47998047 521.19561768 445.47998047 521.19561768 444.52685547 524.48077393 C443.25433028 528.99633904 442.54570052 533.49894996 441.85498047 538.13311768 C441.65388672 539.44506104 441.65388672 539.44506104 441.44873047 540.7835083 C441.12179471 542.92026702 440.80032368 545.05786067 440.47998047 547.19561768 C439.81998047 547.19561768 439.15998047 547.19561768 438.47998047 547.19561768 C438.37298828 548.2706958 438.26599609 549.34577393 438.15576172 550.45343018 C437.44654192 556.09986308 436.05410734 561.55851781 434.66748047 567.07061768 C434.41933594 568.09542236 434.17119141 569.12022705 433.91552734 570.17608643 C432.47548938 575.94356671 430.73733707 581.38600338 428.44165039 586.86846924 C426.98140462 590.40212313 425.77576139 594.01555047 424.54248047 597.63311768 C422.52006525 603.46792402 420.31776124 609.12329372 417.65576172 614.70343018 C415.88195222 618.46319914 414.28158203 622.29580995 412.66577148 626.12530518 C411.81783823 628.13036829 410.9618378 630.13185404 410.10498047 632.13311768 C409.82654297 632.79762939 409.54810547 633.46214111 409.26123047 634.14678955 C407.42934181 638.40056705 405.29655127 642.26613035 402.78759766 646.1572876 C401.45670125 648.23190561 400.1916091 650.33581705 398.93701172 652.45733643 C393.31893988 661.88940555 387.40769311 670.67441811 380.47998047 679.19561768 C379.74134766 680.1263208 379.00271484 681.05702393 378.24169922 682.01593018 C372.62248891 689.0224766 366.65644521 695.68052663 360.47998047 702.19561768 C359.95807129 702.75152588 359.43616211 703.30743408 358.8984375 703.88018799 C319.38108742 745.7248678 262.64219238 769.63895472 206.41748047 777.69561768 C205.69006653 777.80167328 204.96265259 777.90772888 204.2131958 778.01699829 C189.67448537 780.13317207 175.10434014 781.78381666 160.47998047 783.19561768 C160.35880859 784.28358643 160.23763672 785.37155518 160.11279297 786.49249268 C159.67819236 790.34533493 159.21505937 794.19421983 158.74023438 798.04229736 C158.52748636 799.80255765 158.33482151 801.56523514 158.14794922 803.32843018 C155.81974319 821.28887666 147.6200023 837.14898438 135.30029297 850.19952393 C133.43021678 852.06827555 133.43021678 852.06827555 132.47998047 854.19561768 C133.36298828 854.46503174 134.24599609 854.7344458 135.15576172 855.01202393 C147.1319319 859.27615973 158.97797415 869.48734053 164.68310547 880.91827393 C166.07690712 884.9015404 166.59705628 888.98088849 166.47998047 893.19561768 C164.89949518 894.77610297 163.30827475 894.32159719 161.11450195 894.32260132 C160.17218719 894.32542114 159.22987244 894.32824097 158.25900269 894.33114624 C157.21688629 894.32912201 156.1747699 894.32709778 155.10107422 894.32501221 C154.01013458 894.32676453 152.91919495 894.32851685 151.79519653 894.33032227 C148.16927526 894.33474331 144.54340229 894.3318019 140.91748047 894.32843018 C138.41023753 894.32910314 135.90299466 894.33007311 133.39575195 894.33132935 C128.13313295 894.33280666 122.87052665 894.33074528 117.60791016 894.32598877 C111.51569845 894.32054618 105.42352021 894.32230886 99.33130932 894.32781518 C93.48097029 894.3328921 87.63064402 894.33236472 81.78030396 894.32943344 C79.2858988 894.32876392 76.79149279 894.32959346 74.29708862 894.33191299 C70.81766461 894.33443803 67.33830585 894.33060102 63.85888672 894.32501221 C62.81677032 894.32703644 61.77465393 894.32906067 60.70095825 894.33114624 C59.75864349 894.32832642 58.81632874 894.32550659 57.84545898 894.32260132 C57.02175308 894.32222429 56.19804718 894.32184727 55.34938049 894.32145882 C53.47998047 894.19561768 53.47998047 894.19561768 52.47998047 893.19561768 C52.19520758 887.6900084 52.66468093 883.45998633 54.47998047 878.19561768 C54.71330078 877.43378174 54.94662109 876.6719458 55.18701172 875.88702393 C58.56202887 866.00854907 66.31012324 857.25649044 75.47998047 852.19561768 C78.63684417 850.97144734 81.79284338 849.92008763 85.03857422 848.95733643 C87.40358421 848.42681744 87.40358421 848.42681744 88.47998047 847.19561768 C90.14615162 847.15497936 91.81386142 847.15289667 93.47998047 847.19561768 C93.61355957 846.61489502 93.74713867 846.03417236 93.88476562 845.43585205 C94.4496304 843.30984748 95.16082938 841.38135007 96.00341797 839.35186768 C102.98711099 821.95691384 104.82799473 804.81093471 105.47998047 786.19561768 C103.95809773 786.43918912 103.95809773 786.43918912 102.40546989 786.6876812 C98.76903614 787.15821548 95.33475091 787.32140336 91.67214966 787.32260132 C91.02383332 787.32416131 90.37551698 787.3257213 89.7075547 787.32732856 C87.55371065 787.33128914 85.39993821 787.32816781 83.24609375 787.32501221 C81.692713 787.32636879 80.13933258 787.32815016 78.58595276 787.33032227 C74.37146798 787.33487589 70.15700773 787.33311292 65.94252253 787.32994318 C61.49633885 787.32739719 57.05015716 787.32976441 52.60397339 787.33132935 C45.1104902 787.33314945 37.61701685 787.33075404 30.12353516 787.32598877 C21.54951551 787.32059811 12.97551984 787.3222711 4.40150082 787.32781518 C-3.0148081 787.33241335 -10.43110996 787.33296318 -17.84741986 787.33037651 C-22.25093355 787.32884329 -26.65443616 787.32853503 -31.05794907 787.33191299 C-53.23168554 787.34665999 -75.36055228 787.01816697 -97.52001953 786.19561768 C-97.47088689 787.81394516 -97.42152027 789.43226554 -97.37205505 791.05058289 C-97.34458915 791.9517858 -97.31712324 792.85298872 -97.28882504 793.78150082 C-96.97334643 803.63368788 -95.98833655 812.63970467 -93.52001953 822.19561768 C-93.01777317 824.48679307 -92.51774603 826.77845615 -92.02001953 829.07061768 C-91.17238625 832.75266488 -90.21660009 836.24268301 -88.83251953 839.75811768 C-87.52001953 843.19561768 -87.52001953 843.19561768 -87.52001953 847.19561768 C-85.84939453 847.31936768 -85.84939453 847.31936768 -84.14501953 847.44561768 C-71.71376106 849.08418426 -60.86595113 856.53640313 -53.02001953 866.11749268 C-47.90393231 873.20540518 -45.37122943 879.14328023 -45.39501953 887.94561768 C-45.39244141 888.90983643 -45.38986328 889.87405518 -45.38720703 890.86749268 C-45.52001953 893.19561768 -45.52001953 893.19561768 -46.52001953 894.19561768 C-47.99785754 894.29346542 -49.48035221 894.32193533 -50.96142578 894.32260132 C-51.92056885 894.32542114 -52.87971191 894.32824097 -53.86791992 894.33114624 C-54.92873779 894.32912201 -55.98955566 894.32709778 -57.08251953 894.32501221 C-58.19296631 894.32676453 -59.30341309 894.32851685 -60.44750977 894.33032227 C-64.138362 894.3347434 -67.82916677 894.33180187 -71.52001953 894.32843018 C-74.07210296 894.32910314 -76.62418632 894.3300731 -79.17626953 894.33132935 C-84.53304715 894.33280667 -89.88980758 894.33074523 -95.24658203 894.32598877 C-101.44785668 894.32054618 -107.64909846 894.32230885 -113.85037231 894.32781518 C-119.80536169 894.33289204 -125.7603408 894.33236474 -131.71533203 894.32943344 C-134.25439458 894.32876391 -136.79345796 894.3295935 -139.33251953 894.33191299 C-142.87420917 894.33443798 -146.4158347 894.3306011 -149.95751953 894.32501221 C-151.0183374 894.32703644 -152.07915527 894.32906067 -153.17211914 894.33114624 C-154.13126221 894.32832642 -155.09040527 894.32550659 -156.07861328 894.32260132 C-156.91706787 894.32222429 -157.75552246 894.32184727 -158.61938477 894.32145882 C-160.52001953 894.19561768 -160.52001953 894.19561768 -161.52001953 893.19561768 C-161.52001953 882.33163934 -155.6355093 875.16144239 -148.39501953 867.50811768 C-142.34346755 861.68255726 -134.20086511 854.19561768 -125.52001953 854.19561768 C-127.93270757 849.88202391 -130.85282944 846.20085159 -133.95751953 842.38311768 C-137.84828531 837.50826172 -141.11928048 832.99740372 -143.52001953 827.19561768 C-143.90867187 826.30423096 -143.90867187 826.30423096 -144.30517578 825.39483643 C-149.61494671 812.50730196 -151.80295448 797.10295881 -151.52001953 783.19561768 C-152.35750732 783.15187012 -152.35750732 783.15187012 -153.21191406 783.10723877 C-167.61895403 782.29163719 -181.77724607 780.56688926 -196.02001953 778.32061768 C-197.2080014 778.13629181 -197.2080014 778.13629181 -198.41998291 777.94824219 C-245.8388263 770.54192422 -293.24068722 754.33658603 -330.52001953 723.19561768 C-331.06835449 722.74057861 -331.61668945 722.28553955 -332.18164062 721.81671143 C-335.00515966 719.47030557 -337.81103283 717.10534309 -340.59423828 714.71124268 C-342.293774 713.24995963 -344.00092795 711.7972723 -345.72705078 710.36749268 C-363.29474538 695.62637216 -376.86898797 675.71060435 -388.52001953 656.19561768 C-388.94863281 655.48196045 -389.37724609 654.76830322 -389.81884766 654.03302002 C-398.24527498 639.95201647 -405.77115848 625.58979004 -411.52001953 610.19561768 C-411.89658691 609.21069336 -411.89658691 609.21069336 -412.28076172 608.20587158 C-416.31828236 597.64248376 -419.92186281 587.05061276 -422.96582031 576.15948486 C-423.49797049 574.27375092 -424.05342955 572.39464192 -424.60986328 570.51593018 C-426.98301495 562.47408036 -428.86344666 554.4125488 -430.52001953 546.19561768 C-430.85409052 544.59523933 -431.18876142 542.99498614 -431.52392578 541.39483643 C-433.41274654 532.27819808 -435.05199693 523.2191395 -436.12548828 513.96905518 C-436.36370494 511.24425606 -436.36370494 511.24425606 -437.52001953 509.19561768 C-437.71646934 507.83941144 -437.86399585 506.47592064 -437.98486328 505.11090088 C-438.06164307 504.26433426 -438.13842285 503.41776764 -438.2175293 502.54554749 C-438.29672607 501.62182846 -438.37592285 500.69810944 -438.45751953 499.74639893 C-438.54251709 498.78275925 -438.62751465 497.81911957 -438.71508789 496.82627869 C-438.89528268 494.76931338 -439.073358 492.7121615 -439.24951172 490.65484619 C-439.51272764 487.59294183 -439.78535807 484.53198866 -440.05908203 481.4710083 C-442.36675867 455.21192861 -442.76167604 429.03762253 -442.77001953 402.69561768 C-442.77060867 401.84200024 -442.77119781 400.9883828 -442.77180481 400.10889816 C-442.78416943 374.69099484 -442.53100946 349.46731842 -439.52001953 324.19561768 C-439.35753535 322.7811099 -439.19543288 321.36655823 -439.03369141 319.95196533 C-437.51836693 306.8528167 -435.62276625 294.02146185 -432.52001953 281.19561768 C-432.01690601 279.00622665 -431.51691131 276.81611663 -431.02001953 274.62530518 C-430.52001953 272.44040934 -430.02001953 270.25551351 -429.52001953 268.07061768 C-429.27251953 266.98135986 -429.02501953 265.89210205 -428.77001953 264.76983643 C-421.90450383 234.84047891 -421.90450383 234.84047891 -415.58642578 221.60968018 C-414.49033952 219.12842997 -413.60212245 216.60539731 -412.71411133 214.04376221 C-408.53301933 202.15787211 -402.51789885 191.24505281 -396.52001953 180.19561768 C-396.05982422 179.34016357 -395.59962891 178.48470947 -395.12548828 177.60333252 C-387.61061632 163.65149611 -379.17159497 150.7831004 -369.52001953 138.19561768 C-368.94638672 137.43764893 -368.37275391 136.67968018 -367.78173828 135.89874268 C-366.05544817 133.64096945 -364.29681722 131.41387845 -362.52001953 129.19561768 C-361.77880859 128.26749268 -361.03759766 127.33936768 -360.27392578 126.38311768 C-349.93522431 113.68955726 -338.31456765 101.49935857 -325.37548828 91.43780518 C-323.156808 89.69564035 -321.01687858 87.92039155 -318.88330078 86.07843018 C-307.47531311 76.29896705 -295.27320256 68.11697702 -282.52001953 60.19561768 C-281.30354736 59.43644043 -281.30354736 59.43644043 -280.0625 58.66192627 C-271.81596051 53.55057976 -263.62947541 49.1471813 -254.63720703 45.47686768 C-244.24780116 41.20653544 -234.42572059 35.47023112 -224.52001953 30.19561768 C-224.19001953 30.85561768 -223.86001953 31.51561768 -223.52001953 32.19561768 C-222.34439453 31.63874268 -221.16876953 31.08186768 -219.95751953 30.50811768 C-208.58445505 25.47122057 -196.54829076 22.23923548 -184.52001953 19.19561768 C-182.61929688 18.70641846 -182.61929688 18.70641846 -180.68017578 18.20733643 C-175.29407345 16.86357111 -169.85169397 15.79067165 -164.41064453 14.69561768 C-163.60884766 14.53061768 -162.80705078 14.36561768 -161.98095703 14.19561768 C-161.2672998 14.05124268 -160.55364258 13.90686768 -159.81835938 13.75811768 C-157.43975114 13.21799036 -157.43975114 13.21799036 -154.89379883 12.25567627 C-150.34941114 10.82780657 -145.76899067 10.03620676 -141.07861328 9.23468018 C-140.06633163 9.06086823 -139.05404999 8.88705627 -138.01109314 8.70797729 C-128.20120697 7.06966791 -118.36697056 5.87506518 -108.47436523 4.86749268 C-105.63962783 4.57648038 -102.80754819 4.26582013 -99.97509766 3.95343018 C-66.74559448 0.41487059 -33.38566749 -0.12545919 0 0 Z M-67.29492188 35.64141846 C-68.44539222 35.69950086 -68.44539222 35.69950086 -69.61910439 35.75875664 C-73.33822097 35.97526953 -76.88389761 36.39387376 -80.52001953 37.19561768 C-82.62717963 37.34953078 -84.73725941 37.46567889 -86.84814453 37.55499268 C-132.68295939 39.77185912 -177.30310483 48.70431552 -219.52001953 67.19561768 C-220.33341797 67.5385083 -221.14681641 67.88139893 -221.98486328 68.23468018 C-228.96693538 71.22513936 -235.72585509 74.71732889 -242.48974609 78.1663208 C-244.33405472 79.10133826 -246.18825144 80.01678726 -248.04345703 80.92999268 C-256.34144185 85.14425013 -264.08002991 90.04781302 -271.83251953 95.19561768 C-272.83476562 95.86012939 -273.83701172 96.52464111 -274.86962891 97.20928955 C-281.35114135 101.57176351 -287.50282806 106.21423188 -293.52001953 111.19561768 C-294.41998657 111.93618408 -294.41998657 111.93618408 -295.33813477 112.69171143 C-302.58814303 118.7106685 -309.57641347 125.00993197 -316.45751953 131.44561768 C-317.15498291 132.09466064 -317.85244629 132.74370361 -318.57104492 133.41241455 C-323.19001751 137.7708751 -327.42974108 142.33965647 -331.52001953 147.19561768 C-332.03330811 147.80276611 -332.54659668 148.40991455 -333.07543945 149.03546143 C-355.73780726 176.09151634 -374.49269131 206.06743151 -386.23095703 239.53155518 C-387.11410505 242.04183653 -388.02133232 244.51177073 -388.99658203 246.98468018 C-393.26251845 257.84392525 -396.58851883 268.90575968 -399.52001953 280.19561768 C-399.70806152 280.91926514 -399.89610352 281.6429126 -400.08984375 282.38848877 C-406.37767588 307.40402373 -408.84247157 334.02539003 -410.30224609 359.71490479 C-410.52001953 362.19561768 -410.52001953 362.19561768 -411.02455139 364.907547 C-411.55311118 368.41522348 -411.65427829 371.73853428 -411.6652832 375.28546143 C-411.66864182 375.9696666 -411.67200043 376.65387177 -411.67546082 377.35881042 C-411.68493538 379.61693159 -411.68691447 381.87497785 -411.68798828 384.13311768 C-411.69121132 385.73419218 -411.69457613 387.33526641 -411.69807434 388.93634033 C-411.7040627 392.30548784 -411.70591535 395.67460976 -411.70532227 399.04376221 C-411.7052421 402.43541933 -411.71200359 405.82693824 -411.72583008 409.21856689 C-411.83367986 436.10064179 -411.31472959 462.83439206 -407.58251953 489.50811768 C-407.40922119 490.79661621 -407.23592285 492.08511475 -407.05737305 493.41265869 C-405.7828174 502.72473032 -404.30106965 511.96742943 -402.52001953 521.19561768 C-402.16270477 523.1569223 -401.80539671 525.11822822 -401.44873047 527.07965088 C-400.82771618 530.45589856 -400.17403621 533.82563677 -399.52001953 537.19561768 C-399.37983398 537.93006104 -399.23964844 538.66450439 -399.09521484 539.42120361 C-395.19863204 559.66106968 -389.54172453 579.82831566 -380.75048828 598.51983643 C-379.52033102 601.19494031 -378.42262547 603.89829051 -377.33251953 606.63311768 C-371.94290483 619.65660305 -365.61160076 632.63356467 -357.52001953 644.19561768 C-356.89611328 645.09151611 -356.27220703 645.98741455 -355.62939453 646.91046143 C-348.896185 656.36081259 -341.52448425 665.23445418 -333.69580078 673.79327393 C-332.29351154 675.34158251 -330.91377333 676.91077038 -329.56298828 678.50421143 C-324.44358123 684.52029669 -318.7185055 689.32226513 -312.52001953 694.19561768 C-311.71693359 694.86464111 -310.91384766 695.53366455 -310.08642578 696.22296143 C-293.63145611 709.86788701 -273.22001268 721.56353305 -253.26220703 729.14874268 C-251.31502772 729.89211028 -249.38384172 730.67798472 -247.46533203 731.49249268 C-238.00118688 735.34442046 -228.29488797 737.92900963 -218.39501953 740.38311768 C-217.37779816 740.63551208 -217.37779816 740.63551208 -216.34002686 740.89300537 C-211.7410384 742.0279307 -207.1336037 743.12155263 -202.52001953 744.19561768 C-200.83440918 744.5912793 -200.83440918 744.5912793 -199.11474609 744.99493408 C-180.61639652 749.16071693 -161.9623954 750.94165423 -143.08251953 752.32061768 C-141.35585052 752.44951889 -141.35585052 752.44951889 -139.59429932 752.58102417 C-123.56188549 753.77468503 -107.56508588 754.81514782 -91.48779297 755.11456299 C-87.8273769 755.1893389 -84.16867974 755.28851445 -80.5091095 755.3951416 C-15.23276639 757.2688334 50.26346972 757.17547595 115.50646973 754.32196045 C118.24836486 754.20545889 120.99032867 754.10011231 123.73291016 754.00128174 C158.0705373 752.75856054 193.30253253 749.42832848 226.47998047 740.19561768 C227.27839355 739.98050537 228.07680664 739.76539307 228.89941406 739.54376221 C233.80170605 738.21694284 238.64899746 736.76116999 243.47998047 735.19561768 C244.17349609 734.97438232 244.86701172 734.75314697 245.58154297 734.52520752 C255.76750279 731.24023548 265.20895053 727.10423921 274.67675781 722.12872314 C277.28975408 720.77658779 279.95085171 719.52717792 282.60498047 718.25811768 C294.02402974 712.53312008 304.47128298 705.08887052 314.47998047 697.19561768 C315.42486328 696.45698486 316.36974609 695.71835205 317.34326172 694.95733643 C332.62916381 682.52638881 347.76429919 667.98480465 359.23925781 651.92364502 C360.59072294 650.04138013 361.9815027 648.19184839 363.37451172 646.34014893 C381.40333747 622.01388138 392.53744191 594.36418219 401.93164062 565.80499268 C403.2243716 561.88665282 404.5387696 558.00804798 406.06982422 554.17608643 C407.47529079 550.4849434 408.24536376 546.80145307 408.96142578 542.92364502 C409.51886859 539.99103392 410.17396946 537.09206138 410.84716797 534.18389893 C414.85459224 516.57664248 417.48026732 499.12983399 419.47998047 481.19561768 C419.59325684 480.19433838 419.7065332 479.19305908 419.82324219 478.16143799 C421.73334484 461.03991754 422.63966067 443.9770254 422.64794922 426.75421143 C422.65117995 425.13206455 422.65454521 423.50991794 422.65803528 421.88777161 C422.66396373 418.51210864 422.6658818 415.13647102 422.6652832 411.76080322 C422.66520213 408.35482451 422.67212499 404.94898084 422.68579102 401.54302979 C422.78684384 375.90096345 421.71237734 350.89358938 417.98535156 325.48443604 C417.60239173 322.86541356 417.23390599 320.24462476 416.86669922 317.62335205 C415.63720586 309.00075006 414.22741899 300.43486543 412.47216797 291.90264893 C412.31869904 291.14328537 412.1652301 290.38392181 412.0071106 289.60154724 C411.07654681 285.24514154 409.78969571 281.22679477 408.16342163 277.08326721 C407.1536951 274.29442462 406.63403299 271.46354667 406.09716797 268.55108643 C404.59887106 261.2437229 402.26870205 254.4633907 399.60498047 247.50811768 C399.18345703 246.37567627 398.76193359 245.24323486 398.32763672 244.07647705 C393.54233594 231.36689378 387.64390764 219.27737817 381.47998047 207.19561768 C381.15626465 206.55543701 380.83254883 205.91525635 380.49902344 205.25567627 C373.22043884 190.91682761 364.32313113 177.89471899 354.47998047 165.19561768 C353.51318359 163.93684814 353.51318359 163.93684814 352.52685547 162.65264893 C348.02006854 156.89092336 343.17494017 151.48365547 338.19482422 146.13311768 C335.78393161 143.52449718 333.44134626 140.87064934 331.10498047 138.19561768 C321.61577515 127.66141994 310.76270802 118.72608544 299.47998047 110.19561768 C298.89522949 109.74863525 298.31047852 109.30165283 297.70800781 108.84112549 C287.37788495 100.96380424 276.57520128 93.94473891 265.47998047 87.19561768 C264.85236816 86.81276611 264.22475586 86.42991455 263.578125 86.03546143 C247.11982037 76.08243369 229.55387841 68.65765078 211.47998047 62.19561768 C210.55620605 61.86175049 209.63243164 61.5278833 208.68066406 61.18389893 C180.56882329 51.11052952 151.53516842 45.33164297 122.04248047 41.13311768 C120.66076157 40.9356041 120.66076157 40.9356041 119.25112915 40.73410034 C104.6832335 38.66401286 90.18013044 36.97951269 75.47998047 36.19561768 C74.80549834 36.15677617 74.13101622 36.11793467 73.43609524 36.07791615 C58.55592662 35.22649 43.71782332 35.0478384 28.81591797 35.06280518 C26.40280141 35.06212906 23.98968493 35.06115649 21.5765686 35.05990601 C16.55608461 35.05844406 11.53561859 35.06053503 6.51513672 35.06524658 C0.13348653 35.07094912 -6.24812162 35.06765186 -12.62977028 35.06167412 C-17.60080269 35.05803286 -22.5718254 35.05922324 -27.54285812 35.06180191 C-29.89399597 35.06246103 -32.24513475 35.06167899 -34.59627151 35.05932236 C-45.5056817 35.05078051 -56.39743948 35.0859405 -67.29492188 35.64141846 Z " fill="#24253A" transform="translate(567.52001953125,65.80438232421875)"/>
<path d="M0 0 C13.64282839 12.18802925 25.24362121 29.86404028 26.89892578 48.52807617 C26.97534579 50.75296877 26.98628052 52.9646783 26.95825195 55.19067383 C26.95075928 55.98183594 26.9432666 56.77299805 26.93554688 57.58813477 C26.5717378 77.4655247 18.79285433 95.53488833 5.70825195 110.37817383 C4.96833008 111.22508789 4.2284082 112.07200195 3.46606445 112.94458008 C-8.54081823 125.8372164 -26.73920442 134.60771372 -44.41088867 135.4831543 C-67.1208195 136.24807038 -85.39142216 131.90041424 -102.91674805 116.69067383 C-112.85264159 107.29262068 -119.12227042 96.85816613 -124.29174805 84.37817383 C-124.63077148 83.56606445 -124.96979492 82.75395508 -125.3190918 81.91723633 C-131.81850311 64.52080206 -130.83223376 43.94529058 -123.4909668 26.98364258 C-119.9516679 19.40980543 -115.748506 12.73287929 -110.29174805 6.37817383 C-109.77225586 5.64083008 -109.25276367 4.90348633 -108.7175293 4.14379883 C-108.24702148 3.56114258 -107.77651367 2.97848633 -107.29174805 2.37817383 C-106.63174805 2.37817383 -105.97174805 2.37817383 -105.29174805 2.37817383 C-105.29174805 1.71817383 -105.29174805 1.05817383 -105.29174805 0.37817383 C-76.00207154 -27.46254341 -30.0390556 -25.85021996 0 0 Z " fill="#24253B" transform="translate(795.291748046875,289.621826171875)"/>
<path d="M0 0 C0.72316406 0.2165625 1.44632812 0.433125 2.19140625 0.65625 C4.19171036 1.33514109 6.07658124 2.12638614 8 3 C8.92296875 3.40992188 9.8459375 3.81984375 10.796875 4.2421875 C29.98641566 13.25250481 44.56100375 29.16267667 52 49 C58.9115176 69.20716793 55.35249604 90.51029433 46.375 109.375 C42.4482992 117.10240614 37.20255045 123.02153013 31 129 C30.29359375 129.72574219 29.5871875 130.45148438 28.859375 131.19921875 C13.87144963 145.75810045 -5.96778229 151.2973244 -26.39990234 151.38720703 C-40.19764919 151.17682508 -54.56457697 148.00296058 -66 140 C-67.34384766 139.06414062 -67.34384766 139.06414062 -68.71484375 138.109375 C-84.70500522 125.99901428 -95.33746334 107.82325175 -99.5859375 88.30859375 C-102.56745407 64.48458867 -98.01575788 42.76600971 -83.2421875 23.65234375 C-62.08999803 -1.36914867 -31.87818695 -9.87903641 0 0 Z " fill="#24253B" transform="translate(401,274)"/>
<path d="M0 0 C1.35181008 -0.00150681 2.70361923 -0.00494756 4.05541992 -0.01020813 C6.87300644 -0.01451325 9.68943794 0.00209345 12.50683594 0.03442383 C16.09122842 0.07420519 19.67345808 0.06488562 23.25791931 0.04018879 C26.04473128 0.02590397 28.8310509 0.03617167 31.61782837 0.0537014 C33.57292257 0.06227171 35.52807072 0.05206069 37.4831543 0.04133606 C46.27692731 0.17953586 53.37998046 1.60215023 59.95019531 7.76777649 C65.98226358 14.24102976 68.48349872 19.75476189 68.21875 28.66796875 C67.06791133 37.43204784 61.69607084 44.44259583 54.8125 49.76171875 C50.93741585 51.63661781 47.79816175 52.02251046 43.51269531 52.05224609 C41.63484344 52.07138565 41.63484344 52.07138565 39.71905518 52.09091187 C38.35958003 52.09397039 37.0001028 52.09619769 35.640625 52.09765625 C34.23443468 52.10409057 32.82824568 52.1108194 31.42205811 52.11782837 C28.47665305 52.12978522 25.53136511 52.13351101 22.5859375 52.13232422 C18.83241569 52.13212149 15.07965494 52.15938184 11.32631302 52.19386864 C8.42129141 52.21623526 5.51644986 52.22015875 2.61135101 52.21910477 C1.22880184 52.22144768 -0.15375329 52.23019655 -1.53621674 52.2457695 C-10.25748818 52.3347892 -18.15998124 52.17114454 -24.99285889 46.17831421 C-30.37825003 40.6698091 -33.33107231 33.35053314 -33.6875 25.69921875 C-33.3921977 19.22293378 -31.04817883 14.11493022 -27.0625 9.07421875 C-18.10116423 1.8661878 -11.53961115 -0.13851294 0 0 Z " fill="#80C9F8" transform="translate(276.1875,449.23828125)"/>
<path d="M0 0 C1.1719693 -0.01283524 2.3439386 -0.02567047 3.55142212 -0.03889465 C4.82013153 -0.04628159 6.08884094 -0.05366852 7.39599609 -0.0612793 C8.70216888 -0.06935104 10.00834167 -0.07742279 11.35409546 -0.08573914 C14.12310658 -0.1007577 16.89209216 -0.11059793 19.66113281 -0.11816406 C23.18824323 -0.12918881 26.71471584 -0.16354522 30.24160194 -0.20333576 C33.62637286 -0.23596498 37.01108016 -0.24029551 40.39599609 -0.2487793 C41.65256012 -0.26628738 42.90912415 -0.28379547 44.20376587 -0.30183411 C54.01400808 -0.27773388 61.51641223 1.68751333 68.78662109 8.5012207 C74.0491788 14.35002188 75.02009712 20.14658662 74.73193359 27.92700195 C73.59843178 36.34730113 69.5946995 41.63337747 62.96630859 46.7043457 C54.88160723 51.16038724 47.19067079 51.64421095 38.07958984 51.64575195 C36.20321083 51.65717224 36.20321083 51.65717224 34.28892517 51.66882324 C30.98339596 51.68232703 27.67827539 51.68025508 24.3727417 51.67443848 C22.35976222 51.67699836 20.34754954 51.69513744 18.3347168 51.71899414 C14.43681309 51.76199363 10.54020566 51.77087739 6.64208984 51.77075195 C5.45325699 51.78714722 4.26442413 51.80354248 3.03956604 51.82043457 C-5.33580702 51.75154963 -12.31919122 50.25388903 -18.61192322 44.40515137 C-20.1410028 42.74174684 -21.432839 41.04198865 -22.70556641 39.17700195 C-23.32431641 38.29012695 -23.94306641 37.40325195 -24.58056641 36.48950195 C-27.3090031 28.45577169 -26.30347467 19.78131461 -22.70556641 12.17700195 C-18.19199116 4.41365253 -8.69004856 0.08288714 0 0 Z " fill="#80C9F8" transform="translate(823.70556640625,449.822998046875)"/>
<path d="M0 0 C2.14453125 -0.34765625 2.14453125 -0.34765625 5 0 C7.09367282 1.80346075 8.85069644 3.52809042 10.6875 5.5625 C22.01854491 17.4365884 36.56488544 25.54011619 52 31 C53.06992187 31.39832031 54.13984375 31.79664063 55.2421875 32.20703125 C70.14157396 37.50993116 86.02121972 40.66398014 101.8125 41.54296875 C102.54678223 41.58439499 103.28106445 41.62582123 104.03759766 41.66850281 C147.79204663 43.987593 196.79331618 40.48495336 232 11 C233.0730501 10.01237849 234.13913395 9.01715032 235.19921875 8.015625 C235.73901367 7.50620361 236.27880859 6.99678223 236.83496094 6.47192383 C237.88415313 5.46732709 238.92064757 4.44925759 239.94238281 3.41674805 C241.37109375 2.02734375 241.37109375 2.02734375 244 0 C246.50084256 0.14504008 247.77690513 0.88845256 250 2 C248.75829541 11.46380254 240.16108542 18.22627209 233.01953125 23.78515625 C193.13123522 53.0434536 139.0948069 59.53855938 90.92651367 52.41333008 C88.27713663 51.9752364 85.63891418 51.49711009 83 51 C82.03433105 50.82307617 81.06866211 50.64615234 80.07373047 50.46386719 C51.40706825 45.08799758 19.52075726 33.75526837 1.98046875 8.859375 C0.41753175 5.89539886 0.1387156 3.32917431 0 0 Z " fill="#1C1E36" transform="translate(435,495)"/>
<path d="M0 0 C4.68170375 4.26761804 8.57542342 8.72177887 9.40625 15.13671875 C9.59508161 22.28871606 9.35990436 27.36934128 4.84765625 33.09765625 C-1.15282877 39.27574548 -7.07942894 43.1619498 -15.87597656 43.48242188 C-24.69511634 43.55332161 -31.75949358 42.59226106 -39 37 C-44.7234606 30.43594475 -45.36559881 23.946831 -45.26953125 15.44921875 C-44.76177344 8.95139057 -41.90281119 5.67383426 -37.25 1.25 C-26.46991594 -7.53596595 -11.58187537 -7.81495474 0 0 Z " fill="#FBFBFB" transform="translate(748,292)"/>
<path d="M0 0 C4.72246575 3.28858176 8.44597915 6.7852231 11 12 C12.10245943 19.75694426 11.48233413 26.50834367 7 33 C6.38125 33.9075 5.7625 34.815 5.125 35.75 C-0.02991171 41.20814181 -6.44900785 44.54612747 -13.8984375 45.2890625 C-21.98495163 45.51312209 -27.61061793 44.34649528 -34.25 39.75 C-39.75517581 34.24482419 -42.08780345 28.48221494 -42.375 20.75 C-42.32005953 14.85567228 -40.61331043 11.52908057 -37 7 C-36.60425781 6.44441406 -36.20851563 5.88882812 -35.80078125 5.31640625 C-26.97313442 -6.44401361 -12.14599426 -6.19989558 0 0 Z " fill="#FAFAFA" transform="translate(376,291)"/>
<path d="M0 0 C0.33 0 0.66 0 1 0 C1 1.98 1 3.96 1 6 C-36.62 6 -74.24 6 -113 6 C-112.67 5.01 -112.34 4.02 -112 3 C-104.22672065 1.8340081 -104.22672065 1.8340081 -100 3 C-97.48400985 2.66347631 -97.48400985 2.66347631 -95 2 C-94.236875 1.814375 -93.47375 1.62875 -92.6875 1.4375 C-92.130625 1.293125 -91.57375 1.14875 -91 1 C-91 1.66 -91 2.32 -91 3 C-89.98679687 2.87431641 -89.98679687 2.87431641 -88.953125 2.74609375 C-88.06109375 2.64425781 -87.1690625 2.54242187 -86.25 2.4375 C-85.36828125 2.33308594 -84.4865625 2.22867188 -83.578125 2.12109375 C-81 2 -81 2 -79.08505249 2.48335266 C-75.54702643 3.36002687 -71.91505685 3.16300926 -68.2890625 3.16796875 C-67.44330658 3.17129715 -66.59755066 3.17462555 -65.72616577 3.17805481 C-63.93919416 3.18311066 -62.15221313 3.18546355 -60.36523438 3.18530273 C-57.64176751 3.18748655 -54.91870761 3.20564903 -52.1953125 3.22460938 C-50.45573055 3.22754417 -48.71614668 3.22952839 -46.9765625 3.23046875 C-46.16700104 3.23765427 -45.35743958 3.24483978 -44.52334595 3.25224304 C-39.91014953 3.23374909 -36.38574504 2.57898514 -32 1 C-31.01 1.495 -31.01 1.495 -30 2 C-27.32248582 2.09809858 -24.67690283 2.1390397 -22 2.125 C-21.26265625 2.12886719 -20.5253125 2.13273438 -19.765625 2.13671875 C-15.75278359 2.21417412 -15.75278359 2.21417412 -12 1 C-11.01 1.33 -10.02 1.66 -9 2 C-5.45821402 2.25003964 -5.45821402 2.25003964 -2 2 C-1.34 1.34 -0.68 0.68 0 0 Z " fill="#3D3C45" transform="translate(520,954)"/>
<path d="M0 0 C0.99 0.33 1.98 0.66 3 1 C6.20874442 1.05874132 9.40150246 1.0240846 12.609375 0.9609375 C16.8921432 0.91352678 21.12390034 1.05828867 25.39756775 1.35475159 C37.94800356 2.21609521 50.48835732 2.11010551 63.0625 2.0625 C65.39387924 2.05747163 67.72525954 2.0529111 70.05664062 2.04882812 C75.70445061 2.03793615 81.35222018 2.02130545 87 2 C87 2.66 87 3.32 87 4 C50.7 4 14.4 4 -23 4 C-19.9184284 1.94561894 -19.09829562 1.73480845 -15.5859375 1.62109375 C-14.74289062 1.58693359 -13.89984375 1.55277344 -13.03125 1.51757812 C-12.1546875 1.49115234 -11.278125 1.46472656 -10.375 1.4375 C-8.63266664 1.37781365 -6.89046107 1.31422504 -5.1484375 1.24609375 C-4.37677246 1.22216553 -3.60510742 1.1982373 -2.81005859 1.17358398 C-0.97967029 1.19179558 -0.97967029 1.19179558 0 0 Z " fill="#171523" transform="translate(646,955)"/>
<path d="M0 0 C0.99 0.99 0.99 0.99 2 2 C1.7578125 5.0390625 1.7578125 5.0390625 1.125 8.625 C0.92132812 9.81351563 0.71765625 11.00203125 0.5078125 12.2265625 C0.25644531 13.59941406 0.25644531 13.59941406 0 15 C-0.33 15 -0.66 15 -1 15 C-1 10.71 -1 6.42 -1 2 C-2.51501272 2.24377963 -2.51501272 2.24377963 -4.06063175 2.49248409 C-7.77532536 2.97105476 -11.28800644 3.12313955 -15.02989197 3.12025452 C-15.70149198 3.12110894 -16.37309198 3.12196337 -17.06504351 3.12284368 C-19.29591302 3.12447939 -21.52670588 3.11900866 -23.75756836 3.11352539 C-25.36449176 3.11324308 -26.97141529 3.11340211 -28.57833862 3.1139679 C-32.92697034 3.11425416 -37.27557434 3.10838507 -41.62419963 3.10139394 C-46.17390854 3.09513193 -50.72361813 3.09455435 -55.27333069 3.09336853 C-63.88272533 3.09026361 -72.49210724 3.08206153 -81.10149628 3.07201904 C-90.90558158 3.06083185 -100.70966749 3.05534089 -110.51375759 3.05032361 C-130.67584549 3.03987821 -150.83792194 3.02229502 -171 3 C-171 2.67 -171 2.34 -171 2 C-170.20376913 1.99576806 -169.40753826 1.99153612 -168.58717918 1.98717594 C-149.16295326 1.88361894 -129.73876203 1.77494516 -110.31459618 1.66066074 C-100.92100582 1.60551427 -91.52741166 1.55206407 -82.13378906 1.50268555 C-73.94097498 1.45961481 -65.74818675 1.4132815 -57.55541289 1.36312145 C-53.2222774 1.33670346 -48.88914643 1.31185741 -44.55598068 1.29092598 C-40.46680102 1.27112138 -36.37766974 1.24691246 -32.28853416 1.21950912 C-30.79797064 1.21026305 -29.3073966 1.20254511 -27.81681633 1.19658089 C-19.38785895 1.16185359 -11.08478233 0.86246938 -2.695261 0.01621914 C-1.36110681 0.00819067 -1.36110681 0.00819067 0 0 Z " fill="#55545C" transform="translate(674,850)"/>
<path d="M0 0 C35.31 0 70.62 0 107 0 C106.67 0.66 106.34 1.32 106 2 C101.05 1.505 101.05 1.505 96 1 C96 1.66 96 2.32 96 3 C89.97176404 3.02495925 83.94355902 3.04298121 77.9152832 3.05493164 C75.87003047 3.05992045 73.82478122 3.06671389 71.77954102 3.07543945 C52.11219965 3.15716637 52.11219965 3.15716637 42.3684082 2.25610352 C34.49403678 1.65740701 26.58058932 1.61437797 18.6875 1.4375 C16.86783105 1.39419386 15.04816948 1.35057626 13.22851562 1.30664062 C8.81908719 1.20084182 4.40958075 1.0992387 0 1 C0 0.67 0 0.34 0 0 Z " fill="#1D1D2A" transform="translate(506,822)"/>
<path d="M0 0 C0.33 0 0.66 0 1 0 C2.28806268 13.48504801 2.1522102 26.99381707 2.13037109 40.52734375 C2.1267709 43.19017831 2.12583975 45.85281236 2.13037109 48.515625 C2.13655283 52.39585378 2.13580175 56.27601853 2.1328125 60.15625 C2.13483673 61.34174438 2.13686096 62.52723877 2.13894653 63.74865723 C2.1232952 69.27132673 1.99135014 74.56184888 1 80 C0.01 80 -0.98 80 -2 80 C-1.97265274 79.39487076 -1.94530548 78.78974152 -1.91712952 78.16627502 C-1.14375583 60.7590146 -0.7208226 43.35894896 -0.4375 25.9375 C-0.3941403 23.40168825 -0.35052168 20.86588091 -0.30664062 18.33007812 C-0.20145831 12.22009946 -0.09941043 6.11007517 0 0 Z " fill="#2C2C35" transform="translate(990,455)"/>
<path d="M0 0 C0.33 0.66 0.66 1.32 1 2 C-0.61773571 6.59777518 -2.12217816 9.87272432 -6 13 C-6.66 13 -7.32 13 -8 13 C-8.23074219 13.55300781 -8.46148438 14.10601563 -8.69921875 14.67578125 C-10.35897004 17.64140293 -12.42876199 19.76802379 -14.8125 22.1875 C-15.66457031 23.06792969 -16.51664063 23.94835937 -17.39453125 24.85546875 C-20.07899093 27.06501652 -21.58801598 27.68759213 -25 28 C-21.10381392 23.21325711 -16.89787539 18.8809331 -12.5 14.5625 C-7.84545804 9.98152687 -3.70795778 5.40302419 0 0 Z " fill="#2B2B35" transform="translate(922,722)"/>
<path d="M0 0 C0.66 0 1.32 0 2 0 C2.4490156 9.08009321 1.18842083 17.19421143 -1 26 C-1.99 25.67 -2.98 25.34 -4 25 C-3.55046968 16.39691968 -2.13898002 8.34067679 0 0 Z " fill="#282730" transform="translate(135,347)"/>
<path d="M0 0 C3.85415052 -0.02923559 7.70827215 -0.04687777 11.5625 -0.0625 C12.64853516 -0.07087891 13.73457031 -0.07925781 14.85351562 -0.08789062 C20.34832611 -0.10459218 25.58961935 0.01417741 31 1 C31 1.33 31 1.66 31 2 C8.52057564 5.12285918 8.52057564 5.12285918 0 1 C0 0.67 0 0.34 0 0 Z " fill="#1F212D" transform="translate(616,68)"/>
<path d="M0 0 C-0.2421875 3.0390625 -0.2421875 3.0390625 -0.875 6.625 C-1.07867188 7.81351563 -1.28234375 9.00203125 -1.4921875 10.2265625 C-1.65976562 11.14179687 -1.82734375 12.05703125 -2 13 C-2.33 13 -2.66 13 -3 13 C-3 8.71 -3 4.42 -3 0 C-4.52185913 0.24447876 -4.52185913 0.24447876 -6.07446289 0.49389648 C-9.71376909 0.96309741 -13.14376511 1.11454486 -16.80859375 1.09765625 C-18.04931641 1.09443359 -19.29003906 1.09121094 -20.56835938 1.08789062 C-21.84517578 1.07951172 -23.12199219 1.07113281 -24.4375 1.0625 C-26.39333008 1.05573242 -26.39333008 1.05573242 -28.38867188 1.04882812 C-31.59249552 1.03709251 -34.79622363 1.02067363 -38 1 C-38 0.67 -38 0.34 -38 0 C-32.91042841 -0.33485023 -27.82024954 -0.65600017 -22.72900391 -0.96435547 C-20.99634425 -1.07124559 -19.26391314 -1.18190858 -17.53173828 -1.29638672 C-15.04509777 -1.46007513 -12.55795704 -1.61027743 -10.0703125 -1.7578125 C-9.29317902 -1.81188263 -8.51604553 -1.86595276 -7.71536255 -1.92166138 C-2.22774341 -2.22774341 -2.22774341 -2.22774341 0 0 Z " fill="#79797F" transform="translate(676,852)"/>
<path d="M0 0 C0.33 0 0.66 0 1 0 C1.13947228 11.37473908 0.73570866 22.64906646 0 34 C-0.66 34 -1.32 34 -2 34 C-2.22411894 10.64182575 -2.22411894 10.64182575 -1 1 C-0.67 0.67 -0.34 0.34 0 0 Z " fill="#2E2C37" transform="translate(1019,506)"/>
<path d="M0 0 C-0.33 0.66 -0.66 1.32 -1 2 C-5.12273498 3.22958762 -9.10628084 4.06305205 -13.375 4.5625 C-16.82568861 4.7725021 -16.82568861 4.7725021 -19 6 C-20.875 6.16796875 -20.875 6.16796875 -23 6.1875 C-24.051875 6.20876953 -24.051875 6.20876953 -25.125 6.23046875 C-27 6 -27 6 -29 4 C-9.03189066 -0.59225513 -9.03189066 -0.59225513 0 0 Z " fill="#1C1D2A" transform="translate(420,79)"/>
<path d="M0 0 C1.9480957 0.00483398 1.9480957 0.00483398 3.93554688 0.00976562 C5.30729233 0.01812094 6.67903712 0.02658588 8.05078125 0.03515625 C9.4342432 0.0401729 10.81770688 0.04473552 12.20117188 0.04882812 C15.5885852 0.06063096 18.97591158 0.07709606 22.36328125 0.09765625 C22.36328125 0.42765625 22.36328125 0.75765625 22.36328125 1.09765625 C21.31527344 1.18853516 21.31527344 1.18853516 20.24609375 1.28125 C19.33601562 1.36503906 18.4259375 1.44882813 17.48828125 1.53515625 C16.58335937 1.61636719 15.6784375 1.69757813 14.74609375 1.78125 C12.35217264 1.9675491 12.35217264 1.9675491 10.36328125 3.09765625 C7.06351441 3.15684489 3.77943201 3.11901432 0.48046875 3.05859375 C-3.68347907 3.01215567 -7.53111266 3.27137075 -11.63671875 4.09765625 C-8.48371426 -0.63185048 -5.33098556 -0.02327941 0 0 Z " fill="#21232D" transform="translate(493.63671875,67.90234375)"/>
<path d="M0 0 C3.16664666 -0.02940458 6.33325747 -0.04693315 9.5 -0.0625 C10.386875 -0.07087891 11.27375 -0.07925781 12.1875 -0.08789062 C17.55823086 -0.10763596 22.68633663 0.21164107 28 1 C28 1.66 28 2.32 28 3 C22.29309366 3.99250545 16.78591511 4.10477512 11 4 C10.67 3.34 10.34 2.68 10 2 C7.64400765 1.53248212 7.64400765 1.53248212 4.9375 1.375 C4.01839844 1.30023438 3.09929688 1.22546875 2.15234375 1.1484375 C1.08693359 1.07496094 1.08693359 1.07496094 0 1 C0 0.67 0 0.34 0 0 Z " fill="#2B2D3D" transform="translate(731,270)"/>
<path d="M0 0 C0 3 0 3 -2.29492188 5.63549805 C-3.3451977 6.6852984 -4.40374234 7.72686669 -5.46875 8.76171875 C-6.02365112 9.31237503 -6.57855225 9.86303131 -7.15026855 10.43037415 C-8.92660687 12.18990125 -10.7130848 13.93872165 -12.5 15.6875 C-13.70510885 16.87756521 -14.90954483 18.06831223 -16.11328125 19.25976562 C-19.06776708 22.18114979 -22.03138969 25.09297256 -25 28 C-25.66 27.67 -26.32 27.34 -27 27 C-24.50649333 24.30641391 -22.00401126 21.62132058 -19.5 18.9375 C-18.80390625 18.18533203 -18.1078125 17.43316406 -17.390625 16.65820312 C-13.36506393 12.3530892 -9.24348514 8.31940117 -4.74414062 4.51000977 C-3.08348162 3.07227517 -1.53264588 1.57237461 0 0 Z " fill="#D8D8D8" transform="translate(263,186)"/>
<path d="M0 0 C0.99 0.33 1.98 0.66 3 1 C3.125 3.875 3.125 3.875 3 7 C2.34 7.66 1.68 8.32 1 9 C-0.77038989 12.87272788 -1.87460068 16.90033106 -3 21 C-3.99 21 -4.98 21 -6 21 C-5.53316709 15.63142148 -4.05740775 11.28108058 -1.9375 6.33203125 C-1.09136753 4.22727672 -0.48799702 2.21123651 0 0 Z " fill="#2E2D37" transform="translate(151,289)"/>
<path d="M0 0 C4.73163749 0.78388405 9.16273888 2.26586834 13.6875 3.8125 C14.45900391 4.06064453 15.23050781 4.30878906 16.02539062 4.56445312 C21.65140496 6.49547813 21.65140496 6.49547813 23.51953125 9.19921875 C23.67808594 9.79347656 23.83664062 10.38773438 24 11 C15.63019764 8.80148049 7.88172441 5.50929804 0 2 C0 1.34 0 0.68 0 0 Z " fill="#323039" transform="translate(289,819)"/>
<path d="M0 0 C0.99 0.33 1.98 0.66 3 1 C-2.14066567 7.17720317 -7.47510937 12.30268291 -14 17 C-14.63671875 15.171875 -14.63671875 15.171875 -15 13 C-12.8125 10.25 -12.8125 10.25 -10 8 C-8.68 8 -7.36 8 -6 8 C-6 7.34 -6 6.68 -6 6 C-5.01 6 -4.02 6 -3 6 C-2.690625 5.38125 -2.38125 4.7625 -2.0625 4.125 C-1.375 2.75 -0.6875 1.375 0 0 Z " fill="#21232C" transform="translate(679,504)"/>
<path d="M0 0 C0.33 0 0.66 0 1 0 C1 1.65 1 3.3 1 5 C-18.305 4.505 -18.305 4.505 -38 4 C-33.5797123 1.78985615 -31.8971872 1.99199734 -27.05859375 2.03515625 C-25.5182302 2.04444354 -23.97786556 2.05355182 -22.4375 2.0625 C-21.65697266 2.07087891 -20.87644531 2.07925781 -20.07226562 2.08789062 C-15.90408491 2.22076299 -15.90408491 2.22076299 -12 1 C-11.01 1.33 -10.02 1.66 -9 2 C-5.45821402 2.25003964 -5.45821402 2.25003964 -2 2 C-1.34 1.34 -0.68 0.68 0 0 Z " fill="#1B192A" transform="translate(520,954)"/>
<path d="M0 0 C-4.63002597 3.08668398 -8.83494234 4.28229882 -14.3125 5.125 C-15.38113281 5.29257812 -16.44976563 5.46015625 -17.55078125 5.6328125 C-18.35902344 5.75398437 -19.16726563 5.87515625 -20 6 C-20.33 5.34 -20.66 4.68 -21 4 C-13.79245961 0.76396146 -8.0302288 -1.63882221 0 0 Z " fill="#20212F" transform="translate(818,801)"/>
<path d="M0 0 C1.5631897 0.00785522 1.5631897 0.00785522 3.15795898 0.01586914 C4.28266602 0.0190918 5.40737305 0.02231445 6.56616211 0.02563477 C7.75016602 0.03401367 8.93416992 0.04239258 10.15405273 0.05102539 C11.34192383 0.05553711 12.52979492 0.06004883 13.75366211 0.06469727 C16.69967499 0.07652864 19.64558954 0.09301252 22.59155273 0.11352539 C22.59155273 0.44352539 22.59155273 0.77352539 22.59155273 1.11352539 C15.81450946 2.72848038 9.54738416 3.34325927 2.59155273 3.11352539 C1.60155273 3.11352539 0.61155273 3.11352539 -0.40844727 3.11352539 C-1.39844727 2.45352539 -2.38844727 1.79352539 -3.40844727 1.11352539 C-2.40844727 0.11352539 -2.40844727 0.11352539 0 0 Z " fill="#292B34" transform="translate(688.408447265625,818.886474609375)"/>
<path d="M0 0 C0.33 0 0.66 0 1 0 C0.38821421 5.60698523 -0.56654174 10.96895646 -1.9375 16.4375 C-2.10701172 17.15615234 -2.27652344 17.87480469 -2.45117188 18.61523438 C-2.90133478 20.4278675 -3.4435111 22.21713556 -4 24 C-4.66 24.33 -5.32 24.66 -6 25 C-6.26452121 18.97027288 -5.48929757 14.25796498 -3.5625 8.5625 C-3.33240234 7.84384766 -3.10230469 7.12519531 -2.86523438 6.38476562 C-1.16462054 1.16462054 -1.16462054 1.16462054 0 0 Z " fill="#23222C" transform="translate(172,327)"/>
<path d="M0 0 C0.66 0.33 1.32 0.66 2 1 C0 4 0 4 -1.87255859 4.67700195 C-5.45738477 5.22126693 -9.00552043 5.18446352 -12.625 5.1875 C-13.40101563 5.19974609 -14.17703125 5.21199219 -14.9765625 5.22460938 C-16.98576362 5.22984167 -18.99452914 5.12248735 -21 5 C-21.66 4.34 -22.32 3.68 -23 3 C-21.75863281 2.95101563 -20.51726563 2.90203125 -19.23828125 2.8515625 C-17.59633306 2.77650201 -15.95440703 2.70095561 -14.3125 2.625 C-13.49587891 2.5940625 -12.67925781 2.563125 -11.83789062 2.53125 C-7.42819275 2.31701367 -4.08499131 1.7964589 0 0 Z " fill="#32333E" transform="translate(743,332)"/>
<path d="M0 0 C0 3.8224955 -1.48924748 4.93348695 -4.0703125 7.578125 C-4.62460938 8.12984375 -5.17890625 8.6815625 -5.75 9.25 C-6.55824219 10.10078125 -6.55824219 10.10078125 -7.3828125 10.96875 C-8.984375 12.578125 -8.984375 12.578125 -12 15 C-14.18847656 14.65136719 -14.18847656 14.65136719 -16 14 C-14.44395612 12.38957012 -12.87987244 10.78690632 -11.3125 9.1875 C-10.44238281 8.29417969 -9.57226562 7.40085938 -8.67578125 6.48046875 C-6.22170304 4.20552034 -3.9110213 2.61610114 -1 1 C-0.67 0.67 -0.34 0.34 0 0 Z " fill="#1C1C2D" transform="translate(234,166)"/>
<path d="M0 0 C-0.66 1.32 -1.32 2.64 -2 4 C-7.4389165 4.21755666 -11.87080814 4.10428384 -17 2 C-17 1.67 -17 1.34 -17 1 C-11.33357449 -0.22517308 -5.76291482 -0.09228867 0 0 Z " fill="#181C2E" transform="translate(594,537)"/>
<path d="M0 0 C0.33 0 0.66 0 1 0 C0.50610812 8.78607656 -0.36822681 17.35001785 -2 26 C-2.33 26 -2.66 26 -3 26 C-5.04020401 16.77472971 -2.55357986 8.83341359 0 0 Z " fill="#35323A" transform="translate(1010,587)"/>
<path d="M0 0 C1.98493428 3.64038555 2.4575596 6.89295124 3 11 C3.33 11.33 3.66 11.66 4 12 C3.90968426 14.35694954 3.75311872 16.71153582 3.5625 19.0625 C3.46066406 20.35285156 3.35882812 21.64320313 3.25390625 22.97265625 C3.17011719 23.97167969 3.08632813 24.97070312 3 26 C2.67 26 2.34 26 2 26 C0.79268308 17.31163005 -0.38064163 8.79705092 0 0 Z " fill="#1D1C26" transform="translate(987,400)"/>
<path d="M0 0 C0.66 0.99 1.32 1.98 2 3 C0.61714856 4.49131037 -0.78185739 5.96765185 -2.1875 7.4375 C-2.96480469 8.26121094 -3.74210938 9.08492187 -4.54296875 9.93359375 C-7.1461801 12.12294002 -8.66227956 12.67393495 -12 13 C-8.19524578 8.43969176 -4.25030379 4.14910608 0 0 Z " fill="#31323C" transform="translate(909,737)"/>
<path d="M0 0 C1.46795245 3.81667636 0.59626457 6.32859149 -1 10 C-1.99 10.66 -2.98 11.32 -4 12 C-4.165 12.680625 -4.33 13.36125 -4.5 14.0625 C-4.7475 15.0215625 -4.7475 15.0215625 -5 16 C-5.99 16.33 -6.98 16.66 -8 17 C-6.62540566 11.12673329 -4.36639998 4.36639998 0 0 Z " fill="#2F3039" transform="translate(958,664)"/>
<path d="M0 0 C0.33 0 0.66 0 1 0 C1.144375 0.7425 1.28875 1.485 1.4375 2.25 C1.92467376 4.91117812 1.92467376 4.91117812 2.6875 7.0625 C3.10096263 9.62596831 2.22574117 10.76482492 1 13 C1 13.99 1 14.98 1 16 C-1.5 18.1875 -1.5 18.1875 -4 20 C-4.66 19.67 -5.32 19.34 -6 19 C-5.38125 18.278125 -4.7625 17.55625 -4.125 16.8125 C-0.77202435 11.90193638 -0.64962098 5.76111234 0 0 Z " fill="#2E2D35" transform="translate(387,306)"/>
<path d="M0 0 C4.29 0 8.58 0 13 0 C13 0.66 13 1.32 13 2 C7.23918159 3.2982126 1.91260345 4.25706972 -4 4 C-3.67 3.34 -3.34 2.68 -3 2 C-2.01 2 -1.02 2 0 2 C0 1.34 0 0.68 0 0 Z " fill="#1A1D30" transform="translate(355,272)"/>
<path d="M0 0 C-1.20623544 3.61870631 -1.9824595 3.83676255 -5.25 5.5625 C-6.05824219 5.99046875 -6.86648438 6.4184375 -7.69921875 6.859375 C-10.08972121 8.04447979 -12.48452855 9.10741336 -15 10 C-15 8 -15 8 -13.609375 6.5625 C-12.99578125 6.046875 -12.3821875 5.53125 -11.75 5 C-11.14671875 4.484375 -10.5434375 3.96875 -9.921875 3.4375 C-6.37048387 0.78117493 -4.54205867 0 0 0 Z " fill="#1D1E2F" transform="translate(296,122)"/>
<path d="M0 0 C0.66 0.33 1.32 0.66 2 1 C0.76056233 2.79898963 -0.49196896 4.58896323 -1.75 6.375 C-2.44609375 7.37273438 -3.1421875 8.37046875 -3.859375 9.3984375 C-5.86722376 11.83863326 -7.09043174 12.91218844 -10 14 C-7.67501323 7.72253573 -5.51056176 3.88244124 0 0 Z " fill="#1F1F2C" transform="translate(931,713)"/>
<path d="M0 0 C-0.53109375 0.32613281 -1.0621875 0.65226563 -1.609375 0.98828125 C-6.07122822 3.73960723 -6.07122822 3.73960723 -10.3125 6.8125 C-12 8 -12 8 -15 8 C-15 8.66 -15 9.32 -15 10 C-15.99 9.67 -16.98 9.34 -18 9 C-13.81776408 4.12072476 -6.62564285 -2.20854762 0 0 Z " fill="#20202F" transform="translate(875,772)"/>
<path d="M0 0 C-13.44874715 6.70387244 -13.44874715 6.70387244 -21 7 C-21 6.34 -21 5.68 -21 5 C-18.06746654 3.96448955 -15.12833062 2.94918162 -12.1875 1.9375 C-11.35412109 1.64294922 -10.52074219 1.34839844 -9.66210938 1.04492188 C-8.45844727 0.6340332 -8.45844727 0.6340332 -7.23046875 0.21484375 C-6.49207764 -0.04176025 -5.75368652 -0.29836426 -4.99291992 -0.56274414 C-3 -1 -3 -1 0 0 Z " fill="#1B1924" transform="translate(644,533)"/>
<path d="M0 0 C2.72657838 2.64867614 5.29129572 5.29753401 7.6875 8.25 C9.7042322 11.01742194 9.7042322 11.01742194 12 12 C12 13.32 12 14.64 12 16 C7.98869439 14.47317422 6.21413108 11.9985939 3.75 8.5625 C2.69039062 7.11037109 2.69039062 7.11037109 1.609375 5.62890625 C0 3 0 3 0 0 Z " fill="#22212B" transform="translate(921,228)"/>
<path d="M0 0 C8.58 0 17.16 0 26 0 C26 0.33 26 0.66 26 1 C22.37 1.33 18.74 1.66 15 2 C15.33 2.66 15.66 3.32 16 4 C12.95613276 4.08226668 10.92824652 3.97608217 8 3 C7.01 3 6.02 3 5 3 C5 2.34 5 1.68 5 1 C3.35 1 1.7 1 0 1 C0 0.67 0 0.34 0 0 Z " fill="#313442" transform="translate(605,67)"/>
<path d="M0 0 C0.66 0 1.32 0 2 0 C2 0.66 2 1.32 2 2 C2.61875 2.226875 3.2375 2.45375 3.875 2.6875 C6.64128237 4.39608617 6.90241056 5.99992221 8 9 C9.52007842 10.77277259 9.52007842 10.77277259 11 12 C9.68 12.33 8.36 12.66 7 13 C6.01364163 11.58833114 5.03618745 10.17043816 4.0625 8.75 C3.51722656 7.96109375 2.97195312 7.1721875 2.41015625 6.359375 C1.10377559 4.17363007 0.45019489 2.4846199 0 0 Z " fill="#22212D" transform="translate(172,708)"/>
<path d="M0 0 C0.33 0 0.66 0 1 0 C0.63498398 6.84719713 -0.00337561 12.77624166 -3 19 C-3.99 19.33 -4.98 19.66 -6 20 C-4 13.33333333 -2 6.66666667 0 0 Z " fill="#3B3B41" transform="translate(971,624)"/>
<path d="M0 0 C0.33 0 0.66 0 1 0 C2.26666667 7.6 2.26666667 7.6 0 12 C-0.45064632 14.58532701 -0.45064632 14.58532701 -0.625 17.25 C-0.73714844 18.58804688 -0.73714844 18.58804688 -0.8515625 19.953125 C-0.90054688 20.62859375 -0.94953125 21.3040625 -1 22 C-1.33 22 -1.66 22 -2 22 C-2.05807043 18.89591193 -2.09361914 15.7919636 -2.125 12.6875 C-2.14175781 11.80642578 -2.15851562 10.92535156 -2.17578125 10.01757812 C-2.18222656 9.17001953 -2.18867187 8.32246094 -2.1953125 7.44921875 C-2.20578613 6.66893311 -2.21625977 5.88864746 -2.22705078 5.0847168 C-2 3 -2 3 0 0 Z " fill="#24232C" transform="translate(987,554)"/>
<path d="M0 0 C0.33 0 0.66 0 1 0 C1.09796875 0.85722656 1.1959375 1.71445312 1.296875 2.59765625 C2.31451884 10.37912252 3.29350273 16.29350273 9 22 C5.69744449 21.75536626 4.74081575 20.74684329 2.3125 18.375 C-1.23132116 13.79529265 -1.22029058 9.12917549 -0.5625 3.5625 C-0.376875 2.386875 -0.19125 1.21125 0 0 Z " fill="#32323B" transform="translate(702,308)"/>
<path d="M0 0 C9.41002278 -0.3690205 9.41002278 -0.3690205 14 2 C14 2.66 14 3.32 14 4 C4.82713348 4.63019694 4.82713348 4.63019694 1.375 2 C0.92125 1.34 0.4675 0.68 0 0 Z " fill="#212330" transform="translate(691,74)"/>
<path d="M0 0 C0.845625 0.185625 1.69125 0.37125 2.5625 0.5625 C6.28721559 1.03655471 9.30083715 0.53806005 13 0 C15.875 0.3125 15.875 0.3125 18 1 C18.33 1.66 18.66 2.32 19 3 C12.4 3 5.8 3 -1 3 C-0.67 2.01 -0.34 1.02 0 0 Z " fill="#171729" transform="translate(516,849)"/>
<path d="M0 0 C-1.55002747 3.88397689 -4.00476621 6.02979619 -7.125 8.75 C-8.49011719 9.94882812 -8.49011719 9.94882812 -9.8828125 11.171875 C-10.58148438 11.77515625 -11.28015625 12.3784375 -12 13 C-12.33 12.01 -12.66 11.02 -13 10 C-11.40517782 8.32438946 -9.79883156 6.65974066 -8.1875 5 C-7.29417969 4.071875 -6.40085937 3.14375 -5.48046875 2.1875 C-3 0 -3 0 0 0 Z " fill="#20202D" transform="translate(428,928)"/>
<path d="M0 0 C0.99 0 1.98 0 3 0 C4.19126781 3.57380342 3.7349445 5.50883302 3.0625 9.1875 C2.86785156 10.27417969 2.67320312 11.36085938 2.47265625 12.48046875 C2.31667969 13.31191406 2.16070312 14.14335937 2 15 C1.34 14.67 0.68 14.34 0 14 C0 9.38 0 4.76 0 0 Z " fill="#22232C" transform="translate(301,337)"/>
<path d="M0 0 C2.38125464 2.38125464 3.00186241 4.33857567 4.125 7.5 C4.47820313 8.4796875 4.83140625 9.459375 5.1953125 10.46875 C6 13 6 13 6 15 C3 14 3 14 1.61328125 11.56640625 C0.96939453 10.07947266 0.96939453 10.07947266 0.3125 8.5625 C-0.12449219 7.57378906 -0.56148437 6.58507812 -1.01171875 5.56640625 C-2 3 -2 3 -2 1 C-1.34 0.67 -0.68 0.34 0 0 Z " fill="#1A1A25" transform="translate(956,281)"/>
<path d="M0 0 C4.12542568 0.6901558 7.8451293 1.94887848 11.75 3.4375 C13.47476563 4.08525391 13.47476563 4.08525391 15.234375 4.74609375 C18 6 18 6 19 8 C13.97753538 7.49775354 10.44925119 6.32134845 6 4 C3.26427415 3.30092586 3.26427415 3.30092586 1 3 C0.67 2.01 0.34 1.02 0 0 Z " fill="#1D1D28" transform="translate(787,97)"/>
<path d="M0 0 C5.44693314 -0.09688221 10.63904667 -0.12862175 16 1 C16 1.66 16 2.32 16 3 C12.98849505 3.90550946 10.56229013 4.06723758 7.4375 3.75 C6.67308594 3.68296875 5.90867187 3.6159375 5.12109375 3.546875 C2.62397824 2.90305148 1.63879998 1.94771116 0 0 Z " fill="#191B27" transform="translate(673,72)"/>
<path d="M0 0 C8.41192037 -0.10094304 16.64399592 -0.10102642 25 1 C25 1.33 25 1.66 25 2 C16.3534177 3.30581039 8.58154998 2.51586503 0 1 C0 0.67 0 0.34 0 0 Z " fill="#3E3F48" transform="translate(656,70)"/>
<path d="M0 0 C0.66 0.33 1.32 0.66 2 1 C-0.33495542 4.72955337 -2.67340324 6.04991196 -6.6875 7.75 C-8.17830078 8.39195312 -8.17830078 8.39195312 -9.69921875 9.046875 C-10.45847656 9.36140625 -11.21773437 9.6759375 -12 10 C-12.33 9.01 -12.66 8.02 -13 7 C-12.14535156 6.57847656 -11.29070313 6.15695312 -10.41015625 5.72265625 C-9.30542969 5.17480469 -8.20070313 4.62695312 -7.0625 4.0625 C-5.96035156 3.51722656 -4.85820313 2.97195313 -3.72265625 2.41015625 C-1.15205586 1.25295022 -1.15205586 1.25295022 0 0 Z " fill="#2C2C37" transform="translate(857,779)"/>
<path d="M0 0 C1.70059431 2.92371406 2.24062963 4.71201607 1.75 8.0625 C1.61851562 9.06990234 1.61851562 9.06990234 1.484375 10.09765625 C1 12 1 12 -1 15 C-1.66 15 -2.32 15 -3 15 C-3.33 15.99 -3.66 16.98 -4 18 C-3.125 11.125 -3.125 11.125 -2 10 C-1.6068352 8.32115762 -1.25914548 6.63149955 -0.9375 4.9375 C-0.76089844 4.01839844 -0.58429687 3.09929688 -0.40234375 2.15234375 C-0.26957031 1.44207031 -0.13679687 0.73179687 0 0 Z " fill="#393940" transform="translate(976,606)"/>
<path d="M0 0 C0.66 0.33 1.32 0.66 2 1 C1.360625 1.2475 0.72125 1.495 0.0625 1.75 C-0.618125 2.1625 -1.29875 2.575 -2 3 C-2.12375 3.639375 -2.2475 4.27875 -2.375 4.9375 C-3 7 -3 7 -5.8125 8.8125 C-9 10 -9 10 -13 9 C-8.71 6.03 -4.42 3.06 0 0 Z " fill="#2D2F3B" transform="translate(283,127)"/>
<path d="M0 0 C0.33 0.99 0.66 1.98 1 3 C-2.63 6.63 -6.26 10.26 -10 14 C-10.33 13.01 -10.66 12.02 -11 11 C-7.37 7.37 -3.74 3.74 0 0 Z " fill="#1C1B23" transform="translate(928,764)"/>
<path d="M0 0 C0.66 0.33 1.32 0.66 2 1 C-1.93963055 5.55519783 -5.26928904 7.15451681 -11 9 C-11.66 8.34 -12.32 7.68 -13 7 C-12.14535156 6.57847656 -11.29070313 6.15695312 -10.41015625 5.72265625 C-9.30542969 5.17480469 -8.20070313 4.62695312 -7.0625 4.0625 C-5.96035156 3.51722656 -4.85820313 2.97195313 -3.72265625 2.41015625 C-1.15205586 1.25295022 -1.15205586 1.25295022 0 0 Z " fill="#2B2C36" transform="translate(657,513)"/>
<path d="M0 0 C0.99 0 1.98 0 3 0 C2.34 5.28 1.68 10.56 1 16 C0.34 15.67 -0.32 15.34 -1 15 C-1.02703381 13.06257659 -1.04641125 11.12504521 -1.0625 9.1875 C-1.07410156 8.10855469 -1.08570312 7.02960938 -1.09765625 5.91796875 C-1 3 -1 3 0 0 Z " fill="#252531" transform="translate(126,445)"/>
<path d="M0 0 C2.75495753 2.36139217 3.69238528 4.41052654 4.6875 7.875 C4.93886719 8.71804688 5.19023438 9.56109375 5.44921875 10.4296875 C6.00715419 13.03338621 6.09988136 15.34600969 6 18 C3.65945446 15.65945446 3.00678935 13.78524936 1.875 10.6875 C1.52179687 9.74261719 1.16859375 8.79773438 0.8046875 7.82421875 C0.01600322 5.05616665 -0.15620348 2.85852371 0 0 Z " fill="#191921" transform="translate(967,311)"/>
<path d="M0 0 C0.66 0 1.32 0 2 0 C1.01 5.61 0.02 11.22 -1 17 C-3.50552308 13.24171538 -3.37195709 11.46348506 -3 7 C-2.17213056 4.53553318 -1.14821479 2.34427186 0 0 Z " fill="#191928" transform="translate(703,299)"/>
<path d="M0 0 C3.79160297 -0.05786668 7.58309311 -0.09355054 11.375 -0.125 C12.45523438 -0.14175781 13.53546875 -0.15851562 14.6484375 -0.17578125 C15.6796875 -0.18222656 16.7109375 -0.18867187 17.7734375 -0.1953125 C19.20308838 -0.21102295 19.20308838 -0.21102295 20.66162109 -0.22705078 C23 0 23 0 25 2 C18.84765625 2.87890625 18.84765625 2.87890625 17 3 C16.67 2.67 16.34 2.34 16 2 C13.30764224 1.76321284 10.63501844 1.57801975 7.9375 1.4375 C7.17888672 1.39431641 6.42027344 1.35113281 5.63867188 1.30664062 C3.75934562 1.20026367 1.87969756 1.09960066 0 1 C0 0.67 0 0.34 0 0 Z " fill="#2B2B32" transform="translate(623,821)"/>
<path d="M0 0 C0.66 0 1.32 0 2 0 C2.67154933 1.28913487 3.33708859 2.58140204 4 3.875 C4.37125 4.59429687 4.7425 5.31359375 5.125 6.0546875 C6 8 6 8 6 10 C6.66 10 7.32 10 8 10 C8 11.65 8 13.3 8 15 C4.10873653 11.66463131 1.82900259 7.73789501 0 3 C0 2.01 0 1.02 0 0 Z " fill="#222028" transform="translate(673,376)"/>
<path d="M0 0 C0.99 0.66 1.98 1.32 3 2 C1.07053972 3.36707496 -0.86710477 4.71844954 -2.8125 6.0625 C-4.43091797 7.19365234 -4.43091797 7.19365234 -6.08203125 8.34765625 C-7.04496094 8.89292969 -8.00789063 9.43820313 -9 10 C-9.99 9.67 -10.98 9.34 -12 9 C-9.62202997 6.37171734 -7.04670659 4.783438 -4 3 C-2.65368175 2.01755155 -1.31558703 1.02323436 0 0 Z " fill="#282833" transform="translate(296,158)"/>
<path d="M0 0 C-0.020625 0.9075 -0.04125 1.815 -0.0625 2.75 C-0.15508813 5.86525255 -0.15508813 5.86525255 0.6875 8.1875 C0.790625 8.785625 0.89375 9.38375 1 10 C-0.4375 11.75 -0.4375 11.75 -2 13 C-3.29243536 8.8803623 -4.26252625 5.33168317 -4 1 C-1 0 -1 0 0 0 Z " fill="#2B2B34" transform="translate(144,620)"/>
<path d="M0 0 C0.99 0.33 1.98 0.66 3 1 C3 1.99 3 2.98 3 4 C2.01 4 1.02 4 0 4 C-0.309375 4.61875 -0.61875 5.2375 -0.9375 5.875 C-1.625 7.25 -2.3125 8.625 -3 10 C-3.66 10 -4.32 10 -5 10 C-5.33 9.01 -5.66 8.02 -6 7 C-4.78515625 5.17578125 -4.78515625 5.17578125 -3.0625 3.3125 C-2.49660156 2.68988281 -1.93070313 2.06726563 -1.34765625 1.42578125 C-0.90292969 0.95527344 -0.45820312 0.48476563 0 0 Z " fill="#131626" transform="translate(679,500)"/>
<path d="M0 0 C5.841744 -0.35050464 9.8531808 -0.16727335 15 3 C15 3.66 15 4.32 15 5 C15.99 5.33 16.98 5.66 18 6 C13.68068613 5.38388165 9.74791225 4.35761422 5.625 2.9375 C4.56539062 2.57527344 3.50578125 2.21304688 2.4140625 1.83984375 C1.61742187 1.56269531 0.82078125 1.28554687 0 1 C0 0.67 0 0.34 0 0 Z " fill="#36343F" transform="translate(770,125)"/>
<path d="M0 0 C0.66 0.33 1.32 0.66 2 1 C1.46148032 6.27749285 0.22656164 10.25645564 -2 15 C-2.66 15 -3.32 15 -4 15 C-3.67 12.69 -3.34 10.38 -3 8 C-2.34 8 -1.68 8 -1 8 C-0.67 5.36 -0.34 2.72 0 0 Z " fill="#2D2B36" transform="translate(998,637)"/>
<path d="M0 0 C0.99 0 1.98 0 3 0 C2.01 5.94 1.02 11.88 0 18 C-0.33 18 -0.66 18 -1 18 C-1.02690844 15.37493198 -1.04679404 12.75013827 -1.0625 10.125 C-1.07087891 9.37863281 -1.07925781 8.63226563 -1.08789062 7.86328125 C-1.11328125 2.2265625 -1.11328125 2.2265625 0 0 Z " fill="#1E1C25" transform="translate(668,332)"/>
<path d="M0 0 C0.99 0.33 1.98 0.66 3 1 C4.73324119 0.91538508 6.46392812 0.76395645 8.1875 0.5625 C9.08855469 0.46066406 9.98960937 0.35882812 10.91796875 0.25390625 C11.60503906 0.17011719 12.29210937 0.08632813 13 0 C13 0.99 13 1.98 13 3 C8.71 3 4.42 3 0 3 C0 2.01 0 1.02 0 0 Z " fill="#1A1B2E" transform="translate(498,849)"/>
<path d="M0 0 C5.76044212 0.60636233 10.72014369 2.75658279 16 5 C15.34 5.66 14.68 6.32 14 7 C10.22254703 6.65082368 7.4361522 5.32850651 4.1875 3.4375 C3.39730469 2.98246094 2.60710937 2.52742188 1.79296875 2.05859375 C1.20128906 1.70925781 0.60960937 1.35992187 0 1 C0 0.67 0 0.34 0 0 Z " fill="#3A3842" transform="translate(335,413)"/>
<path d="M0 0 C0.99 0.33 1.98 0.66 3 1 C2.01 5.62 1.02 10.24 0 15 C-0.66 15 -1.32 15 -2 15 C-2.22577402 9.5814234 -1.46670113 5.22512279 0 0 Z " fill="#32323B" transform="translate(304,322)"/>
<path d="M0 0 C5.28 0 10.56 0 16 0 C16 0.66 16 1.32 16 2 C14.27277272 2.22384382 12.54303993 2.42839969 10.8125 2.625 C9.36810547 2.79902344 9.36810547 2.79902344 7.89453125 2.9765625 C4.75924677 3.00194942 2.80513465 2.34359283 0 1 C0 0.67 0 0.34 0 0 Z " fill="#161824" transform="translate(616,68)"/>
<path d="M0 0 C1.88864723 2.83297085 3.04128677 5.33351181 4.25 8.5 C4.81460938 9.93859375 4.81460938 9.93859375 5.390625 11.40625 C5.59171875 12.2621875 5.7928125 13.118125 6 14 C5.01 15.485 5.01 15.485 4 17 C-0.59225513 5.47835991 -0.59225513 5.47835991 0 0 Z " fill="#1D1C26" transform="translate(148,647)"/>
<path d="M0 0 C0.33 0 0.66 0 1 0 C2.55940688 6.63347695 3.56987305 11.57531738 1 18 C0.67 18 0.34 18 0 18 C0 12.06 0 6.12 0 0 Z " fill="#1D1E26" transform="translate(126,421)"/>
<path d="M0 0 C0.66 0 1.32 0 2 0 C2 4.29 2 8.58 2 13 C1.01 12.67 0.02 12.34 -1 12 C-0.67 8.04 -0.34 4.08 0 0 Z " fill="#2F2E35" transform="translate(132,360)"/>
<path d="M0 0 C1.27230469 0.00902344 2.54460938 0.01804687 3.85546875 0.02734375 C5.31919922 0.04474609 5.31919922 0.04474609 6.8125 0.0625 C5.8225 0.3925 4.8325 0.7225 3.8125 1.0625 C3.8125 1.7225 3.8125 2.3825 3.8125 3.0625 C3.12542969 2.97871094 2.43835938 2.89492188 1.73046875 2.80859375 C0.82941406 2.70675781 -0.07164062 2.60492188 -1 2.5 C-1.89332031 2.39558594 -2.78664063 2.29117187 -3.70703125 2.18359375 C-6.32125572 1.90591291 -6.32125572 1.90591291 -9.1875 3.0625 C-9.5175 2.4025 -9.8475 1.7425 -10.1875 1.0625 C-6.62704823 -0.12431726 -3.74941663 -0.03439832 0 0 Z " fill="#14162A" transform="translate(737.1875,270.9375)"/>
<path d="M0 0 C0.721875 0.12375 1.44375 0.2475 2.1875 0.375 C0.89784824 1.75062854 -0.43939293 3.08266393 -1.8125 4.375 C-2.4725 4.375 -3.1325 4.375 -3.8125 4.375 C-5.16132408 5.00974075 -6.4971659 5.67348848 -7.8125 6.375 C-3.50480769 0.46730769 -3.50480769 0.46730769 0 0 Z M-2.8125 4.375 C-2.8125 5.365 -2.8125 6.355 -2.8125 7.375 C-4.7925 8.365 -4.7925 8.365 -6.8125 9.375 C-5.4925 7.725 -4.1725 6.075 -2.8125 4.375 Z " fill="#2F2F3F" transform="translate(236.8125,163.625)"/>
<path d="M0 0 C1.4606285 2.64738916 2 3.89448334 2 7 C1.34 7 0.68 7 0 7 C0 7.66 0 8.32 0 9 C-0.66 9 -1.32 9 -2 9 C-2.33 11.64 -2.66 14.28 -3 17 C-3.66 16.67 -4.32 16.34 -5 16 C-4.80664062 15.43152344 -4.61328125 14.86304688 -4.4140625 14.27734375 C-2.81863577 9.54635062 -1.33099414 4.81205575 0 0 Z " fill="#3C3C42" transform="translate(964,645)"/>
<path d="M0 0 C2 1 2 1 3 3 C0.08291076 4.98362069 -1.12380904 4.9876191 -4.75 4.625 C-5.8225 4.41875 -6.895 4.2125 -8 4 C-5.31143836 2.20762558 -3.0466145 1.01553817 0 0 Z " fill="#2F2F3A" transform="translate(822,796)"/>
<path d="M0 0 C0.33 0 0.66 0 1 0 C1.87557031 6.54311329 2.3548854 11.76647981 0 18 C-0.33 18 -0.66 18 -1 18 C-0.505 9.09 -0.505 9.09 0 0 Z " fill="#37383B" transform="translate(987,537)"/>
<path d="M0 0 C0.33 0 0.66 0 1 0 C1.36263859 5.8022175 0.25684543 9.63999211 -2 15 C-2.66 15 -3.32 15 -4 15 C-3.32584613 9.7415998 -1.75734451 4.97361654 0 0 Z " fill="#201F2A" transform="translate(177,310)"/>
<path d="M0 0 C1.49080078 0.02707031 1.49080078 0.02707031 3.01171875 0.0546875 C3.77097656 0.07789063 4.53023438 0.10109375 5.3125 0.125 C5.3125 1.115 5.3125 2.105 5.3125 3.125 C-1.6175 2.63 -1.6175 2.63 -8.6875 2.125 C-5.26655758 -0.15562828 -4.00562778 -0.09425007 0 0 Z " fill="#1D1F2A" transform="translate(450.6875,819.875)"/>
<path d="M0 0 C0.33 0.99 0.66 1.98 1 3 C-2.60957611 6.2910841 -5.12637153 7.54663921 -10 8 C-6.97727468 4.74475735 -3.74281699 2.38179263 0 0 Z " fill="#2D2E39" transform="translate(880,764)"/>
<path d="M0 0 C0 0.66 0 1.32 0 2 C-2.97 3.65 -5.94 5.3 -9 7 C-9.66 6.34 -10.32 5.68 -11 5 C-9.73461631 4.15841464 -8.46246221 3.32700252 -7.1875 2.5 C-6.47980469 2.0359375 -5.77210938 1.571875 -5.04296875 1.09375 C-3 0 -3 0 0 0 Z " fill="#23202B" transform="translate(897,793)"/>
<path d="M0 0 C0.33 0.99 0.66 1.98 1 3 C-0.14453125 5.04296875 -0.14453125 5.04296875 -1.8125 7.1875 C-2.62654297 8.26064453 -2.62654297 8.26064453 -3.45703125 9.35546875 C-3.96621094 9.89816406 -4.47539063 10.44085937 -5 11 C-5.66 11 -6.32 11 -7 11 C-5.5140084 6.40693504 -3.14985318 3.56430755 0 0 Z " fill="#22212B" transform="translate(947,742)"/>
<path d="M0 0 C0 0.66 0 1.32 0 2 C-9.41002278 2.18451025 -9.41002278 2.18451025 -14 1 C-14 0.67 -14 0.34 -14 0 C-9.20699867 -1.39151652 -4.84864218 -0.68662689 0 0 Z " fill="#32303C" transform="translate(532,545)"/>
<path d="M0 0 C0.66 0.33 1.32 0.66 2 1 C-1.3 4.3 -4.6 7.6 -8 11 C-8.66 10.67 -9.32 10.34 -10 10 C-8.90033225 8.70450101 -7.79508199 7.41373929 -6.6875 6.125 C-6.07261719 5.40570313 -5.45773437 4.68640625 -4.82421875 3.9453125 C-3 2 -3 2 0 0 Z " fill="#D7D7D8" transform="translate(347,290)"/>
<path d="M0 0 C1.27609323 0.90933009 2.54565553 1.82782853 3.8125 2.75 C4.87404297 3.51570313 4.87404297 3.51570313 5.95703125 4.296875 C8.02977691 6.02482358 9.47375854 7.78526476 11 10 C6.65112719 9.49820698 4.0752046 6.93852884 1 4 C0.32421875 1.83203125 0.32421875 1.83203125 0 0 Z " fill="#2F303A" transform="translate(790,286)"/>
<path d="M0 0 C3.49873271 1.39655297 4.70891831 2.71260484 6.25 6.125 C6.58515625 6.84945312 6.9203125 7.57390625 7.265625 8.3203125 C7.62914062 9.15175781 7.62914062 9.15175781 8 10 C7.01 10 6.02 10 5 10 C3.61328125 8.3203125 3.61328125 8.3203125 2.3125 6.125 C1.87550781 5.40570313 1.43851563 4.68640625 0.98828125 3.9453125 C0 2 0 2 0 0 Z " fill="#201F29" transform="translate(933,245)"/>
<path d="M0 0 C0.66 0.33 1.32 0.66 2 1 C-1.0657052 5.65987191 -3.58657319 6.85485202 -9 8 C-6.14723863 5.06799526 -3.34920216 2.35684596 0 0 Z " fill="#373841" transform="translate(268,137)"/>
<path d="M0 0 C1.61725534 3.00950123 2.67582623 5.97103608 3.625 9.25 C3.88539063 10.14203125 4.14578125 11.0340625 4.4140625 11.953125 C4.60742188 12.62859375 4.80078125 13.3040625 5 14 C4.01 14 3.02 14 2 14 C0.4087311 9.126739 -0.21192221 5.19209404 0 0 Z " fill="#1D1C26" transform="translate(419,867)"/>
<path d="M0 0 C2.64465038 3.1254959 3.84414715 6.08788267 5 10 C2.54765115 9.01906046 1.2190732 8.31296172 -0.3125 6.125 C-1.1132654 3.64990694 -0.86325845 2.41712366 0 0 Z " fill="#1B1A26" transform="translate(950,271)"/>
<path d="M0 0 C0.66 0.33 1.32 0.66 2 1 C1.37240135 3.92879371 0.41377341 6.36095629 -1 9 C-1.66 9 -2.32 9 -3 9 C-2.25 2.25 -2.25 2.25 0 0 Z " fill="#1E1D29" transform="translate(160,270)"/>
<path d="M0 0 C0.66 0 1.32 0 2 0 C0.44499019 3.81684226 -2.03595495 6.19195732 -5 9 C-5.33 8.34 -5.66 7.68 -6 7 C-5.04882866 5.8274869 -4.08882991 4.66212985 -3.125 3.5 C-2.59132812 2.8503125 -2.05765625 2.200625 -1.5078125 1.53125 C-0.76144531 0.77328125 -0.76144531 0.77328125 0 0 Z " fill="#21212C" transform="translate(231,216)"/>
<path d="M0 0 C0.66 0.33 1.32 0.66 2 1 C2 1.99 2 2.98 2 4 C3.65 4 5.3 4 7 4 C7.33 4.99 7.66 5.98 8 7 C6.68 7 5.36 7 4 7 C4 6.34 4 5.68 4 5 C3.01 5 2.02 5 1 5 C1 4.34 1 3.68 1 3 C-0.65 2.67 -2.3 2.34 -4 2 C-2.125 0.9375 -2.125 0.9375 0 0 Z " fill="#1A1B2D" transform="translate(784,125)"/>
<path d="M0 0 C0 0.99 0 1.98 0 3 C-9 3 -9 3 -12 1 C-7.95858806 0.36605303 -4.0934693 -0.12404452 0 0 Z " fill="#191A29" transform="translate(452,73)"/>
<path d="M0 0 C0.33 1.32 0.66 2.64 1 4 C-0.98 5.32 -2.96 6.64 -5 8 C-5.66 7.34 -6.32 6.68 -7 6 C-4.69 4.02 -2.38 2.04 0 0 Z " fill="#2B2B36" transform="translate(888,757)"/>
<path d="M0 0 C3.36673207 4.4889761 3.37699894 5.62776514 3 11 C2.71479595 12.67557379 2.40044304 14.34817245 2 16 C1.67 16 1.34 16 1 16 C0.67 10.72 0.34 5.44 0 0 Z " fill="#313036" transform="translate(132,576)"/>
<path d="M0 0 C1.9453125 0.92578125 1.9453125 0.92578125 4.125 2.3125 C4.84945313 2.76238281 5.57390625 3.21226562 6.3203125 3.67578125 C6.87460937 4.11277344 7.42890625 4.54976562 8 5 C8 5.66 8 6.32 8 7 C3.56909529 5.79157144 1.01887244 4.48331435 -2 1 C-1.34 0.67 -0.68 0.34 0 0 Z " fill="#2D2D36" transform="translate(459,521)"/>
<path d="M0 0 C1.65 0 3.3 0 5 0 C4.49396008 2.16874252 4.00016187 3.99967627 3 6 C2.01 5.67 1.02 5.34 0 5 C0 3.35 0 1.7 0 0 Z " fill="#27282E" transform="translate(435,495)"/>
<path d="M0 0 C1.17175781 0.12761719 2.34351563 0.25523437 3.55078125 0.38671875 C4.73027344 0.50660156 5.90976562 0.62648438 7.125 0.75 C8.48044922 0.91048828 8.48044922 0.91048828 9.86328125 1.07421875 C9.86328125 1.40421875 9.86328125 1.73421875 9.86328125 2.07421875 C1.94328125 2.56921875 1.94328125 2.56921875 -6.13671875 3.07421875 C-3.13671875 0.07421875 -3.13671875 0.07421875 0 0 Z " fill="#1A1A2A" transform="translate(725.13671875,283.92578125)"/>
<path d="M0 0 C0 0.66 0 1.32 0 2 C-3.3 2 -6.6 2 -10 2 C-10 1.34 -10 0.68 -10 0 C-6.7169902 -1.6415049 -3.57454967 -0.51888624 0 0 Z " fill="#181A2C" transform="translate(379,272)"/>
<path d="M0 0 C0.66 0.33 1.32 0.66 2 1 C0.54782324 2.50596108 -0.91192861 4.00462104 -2.375 5.5 C-3.18710938 6.3353125 -3.99921875 7.170625 -4.8359375 8.03125 C-7 10 -7 10 -9 10 C-9 9.34 -9 8.68 -9 8 C-8.34 8 -7.68 8 -7 8 C-7 7.34 -7 6.68 -7 6 C-6.34 6 -5.68 6 -5 6 C-4.67 5.01 -4.34 4.02 -4 3 C-1.9375 1.3125 -1.9375 1.3125 0 0 Z " fill="#1D1C24" transform="translate(251,195)"/>
<path d="M0 0 C-3.46741134 2.95749791 -6.86873527 5.07848152 -11 7 C-11 6.01 -11 5.02 -11 4 C-7.31866108 1.00356134 -4.79371252 -0.56396618 0 0 Z " fill="#2D2C38" transform="translate(312,151)"/>
<path d="M0 0 C0.99 0 1.98 0 3 0 C3 0.66 3 1.32 3 2 C6.3 1.67 9.6 1.34 13 1 C13.33 1.66 13.66 2.32 14 3 C8.72 3 3.44 3 -2 3 C-1.34 2.01 -0.68 1.02 0 0 Z " fill="#1B1B2B" transform="translate(426,955)"/>
<path d="M0 0 C1.23556641 0.01740234 1.23556641 0.01740234 2.49609375 0.03515625 C3.32238281 0.04417969 4.14867187 0.05320312 5 0.0625 C5.63808594 0.07410156 6.27617188 0.08570313 6.93359375 0.09765625 C4.68742239 2.45868865 3.30097566 3.88719488 -0.06640625 4.09765625 C-1.81640625 2.66015625 -1.81640625 2.66015625 -3.06640625 1.09765625 C-2.06640625 0.09765625 -2.06640625 0.09765625 0 0 Z " fill="#1C1E2D" transform="translate(716.06640625,817.90234375)"/>
<path d="M0 0 C2.91517292 1.07401108 4.77810176 1.77810176 7 4 C7.33 4.99 7.66 5.98 8 7 C7.01 7 6.02 7 5 7 C0 1.53488372 0 1.53488372 0 0 Z " fill="#312F38" transform="translate(686,398)"/>
<path d="M0 0 C3.09592835 3.5087188 4.74194623 6.49197399 6 11 C3 10 3 10 1.3125 7.1875 C0 4 0 4 0 0 Z " fill="#3E3E46" transform="translate(443,305)"/>
<path d="M0 0 C0.33 0 0.66 0 1 0 C0.03644647 9.41002278 0.03644647 9.41002278 -1 14 C-1.33 14 -1.66 14 -2 14 C-2.05437607 12.41705218 -2.09296271 10.83355744 -2.125 9.25 C-2.14820313 8.36828125 -2.17140625 7.4865625 -2.1953125 6.578125 C-1.99139502 3.8864142 -1.36551721 2.30095026 0 0 Z " fill="#191927" transform="translate(334,301)"/>
<path d="M0 0 C7.38461538 0.49230769 7.38461538 0.49230769 10.5 3.0625 C10.995 3.701875 11.49 4.34125 12 5 C8.76344816 5 7.21247361 4.3449153 4.3125 3 C3.50425781 2.62875 2.69601562 2.2575 1.86328125 1.875 C1.24839844 1.58625 0.63351562 1.2975 0 1 C0 0.67 0 0.34 0 0 Z " fill="#3F3E46" transform="translate(806,139)"/>
<path d="M0 0 C8.57142857 0.85714286 8.57142857 0.85714286 12 3 C11.67 3.66 11.34 4.32 11 5 C9.53932801 4.54917531 8.08151968 4.08906463 6.625 3.625 C5.81289063 3.36976563 5.00078125 3.11453125 4.1640625 2.8515625 C2 2 2 2 0 0 Z " fill="#3C3A44" transform="translate(795,134)"/>
<path d="M0 0 C1.299375 0.3403125 1.299375 0.3403125 2.625 0.6875 C4.0171875 0.9659375 4.0171875 0.9659375 5.4375 1.25 C6.159375 1.394375 6.88125 1.53875 7.625 1.6875 C6.965 2.3475 6.305 3.0075 5.625 3.6875 C3.0234375 3.4453125 3.0234375 3.4453125 0 2.8125 C-1.00289062 2.60882813 -2.00578125 2.40515625 -3.0390625 2.1953125 C-4.19535156 1.94394531 -4.19535156 1.94394531 -5.375 1.6875 C-2.375 -0.3125 -2.375 -0.3125 0 0 Z " fill="#312F3A" transform="translate(755.375,118.3125)"/>
<path d="M0 0 C0.99 0.33 1.98 0.66 3 1 C0.22719294 4.08089673 -2.06326356 5.68775452 -6 7 C-6 6.01 -6 5.02 -6 4 C-4.02 3.34 -2.04 2.68 0 2 C0 1.34 0 0.68 0 0 Z " fill="#26272F" transform="translate(659,521)"/>
<path d="M0 0 C0.33 0.66 0.66 1.32 1 2 C-0.28627711 3.17260611 -1.57919783 4.3379283 -2.875 5.5 C-3.59429688 6.1496875 -4.31359375 6.799375 -5.0546875 7.46875 C-7 9 -7 9 -9 9 C-7.48328036 4.44984107 -3.83108947 2.49942736 0 0 Z " fill="#93CFF2" transform="translate(811,453)"/>
<path d="M0 0 C0.33 0 0.66 0 1 0 C1.22331199 1.58129029 1.42804644 3.16521089 1.625 4.75 C1.74101563 5.63171875 1.85703125 6.5134375 1.9765625 7.421875 C2.00207817 10.22859878 1.44843844 11.63384866 0 14 C-0.66 14 -1.32 14 -2 14 C-1.34 9.38 -0.68 4.76 0 0 Z " fill="#33323A" transform="translate(757,308)"/>
<path d="M0 0 C0 0.33 0 0.66 0 1 C-3.96 1.66 -7.92 2.32 -12 3 C-12.33 2.34 -12.66 1.68 -13 1 C-8.31506124 -1.48887372 -5.0555786 -0.85687773 0 0 Z " fill="#171929" transform="translate(810,804)"/>
<path d="M0 0 C0.33 0 0.66 0 1 0 C2.42857143 8.57142857 2.42857143 8.57142857 0 12 C-1.17661508 8.32307787 -1.14475933 4.8361222 -1 1 C-0.67 0.67 -0.34 0.34 0 0 Z " fill="#171622" transform="translate(987,554)"/>
<path d="M0 0 C7.75 -0.125 7.75 -0.125 10 1 C10 1.66 10 2.32 10 3 C8.5199159 2.88637738 7.04089926 2.75877092 5.5625 2.625 C4.73878906 2.55539062 3.91507812 2.48578125 3.06640625 2.4140625 C2.38449219 2.27742187 1.70257813 2.14078125 1 2 C0.67 1.34 0.34 0.68 0 0 Z " fill="#302F3B" transform="translate(506,542)"/>
<path d="M0 0 C0.33 0 0.66 0 1 0 C1.33 3.96 1.66 7.92 2 12 C1.34 12 0.68 12 0 12 C-0.76173392 7.6835078 -1.16063604 4.25566547 0 0 Z " fill="#3D3F4C" transform="translate(1008,339)"/>
<path d="M0 0 C0.66 0 1.32 0 2 0 C2.66 2.31 3.32 4.62 4 7 C2.68 7.33 1.36 7.66 0 8 C0 5.36 0 2.72 0 0 Z " fill="#3E3D46" transform="translate(620,951)"/>
<path d="M0 0 C0.66 0 1.32 0 2 0 C2.33 0.99 2.66 1.98 3 3 C1.6875 5.1875 1.6875 5.1875 0 7 C-0.66 7 -1.32 7 -2 7 C-1.125 1.125 -1.125 1.125 0 0 Z " fill="#201F2B" transform="translate(664,906)"/>
<path d="M0 0 C0.99 0.33 1.98 0.66 3 1 C4.1875 4.5625 4.1875 4.5625 5 8 C4.01 8 3.02 8 2 8 C0.74335022 5.09399739 0 3.20395416 0 0 Z " fill="#1F1D29" transform="translate(161,685)"/>
<path d="M0 0 C2.77842595 2.77842595 3.94471208 4.78366581 4.125 8.75 C4.08375 9.4925 4.0425 10.235 4 11 C2 10 2 10 0.875 7.75 C-0.00513321 4.98386705 -0.1645438 2.87951649 0 0 Z " fill="#1A1923" transform="translate(154,666)"/>
<path d="M0 0 C0.99 0.33 1.98 0.66 3 1 C2.34 3.64 1.68 6.28 1 9 C0.34 8.67 -0.32 8.34 -1 8 C-1.04241723 5.66705225 -1.04092937 3.33297433 -1 1 C-0.67 0.67 -0.34 0.34 0 0 Z " fill="#2C2C38" transform="translate(991,655)"/>
<path d="M0 0 C2.3125 0.1875 2.3125 0.1875 5 1 C6.8125 3.5625 6.8125 3.5625 8 6 C5.0280615 4.87548273 2.66559313 3.77706209 0 2 C0 1.34 0 0.68 0 0 Z " fill="#34323B" transform="translate(850,163)"/>
<path d="M0 0 C4.40114397 0.50298788 6.71195019 2.08772731 10 5 C9.01 5.495 9.01 5.495 8 6 C6.0546875 5.0390625 6.0546875 5.0390625 3.875 3.625 C3.15054688 3.16351563 2.42609375 2.70203125 1.6796875 2.2265625 C1.12539063 1.82179687 0.57109375 1.41703125 0 1 C0 0.67 0 0.34 0 0 Z " fill="#1D1E28" transform="translate(852,127)"/>
<path d="M0 0 C0.66 0.33 1.32 0.66 2 1 C0.02 1.99 0.02 1.99 -2 3 C-1.67 3.66 -1.34 4.32 -1 5 C-2.8125 5.625 -2.8125 5.625 -5 6 C-5.99 5.34 -6.98 4.68 -8 4 C-6.71349294 3.30289269 -5.42059335 2.61757124 -4.125 1.9375 C-3.40570313 1.55464844 -2.68640625 1.17179687 -1.9453125 0.77734375 C-1.30335938 0.52082031 -0.66140625 0.26429687 0 0 Z " fill="#41424E" transform="translate(309,113)"/>
<path d="M0 0 C2.31 0 4.62 0 7 0 C7.33 0.99 7.66 1.98 8 3 C5.03 2.67 2.06 2.34 -1 2 C-0.67 1.34 -0.34 0.68 0 0 Z " fill="#1A1B27" transform="translate(697,75)"/>
<path d="M0 0 C0.99 0.33 1.98 0.66 3 1 C2.6875 2.875 2.6875 2.875 2 5 C1.01 5.66 0.02 6.32 -1 7 C-0.67 4.69 -0.34 2.38 0 0 Z " fill="#191723" transform="translate(671,884)"/>
<path d="M0 0 C1.5625 1.5 1.5625 1.5 3 4 C2.96823234 6.77437543 2.50364148 9.25286467 2 12 C-0.13586678 8.79619983 -0.23132175 7.98060033 -0.125 4.3125 C-0.10695313 3.50425781 -0.08890625 2.69601562 -0.0703125 1.86328125 C-0.04710937 1.24839844 -0.02390625 0.63351562 0 0 Z " fill="#36363F" transform="translate(672,870)"/>
<path d="M0 0 C2.91517292 1.07401108 4.77810176 1.77810176 7 4 C6.01 4.33 5.02 4.66 4 5 C1.3125 3.5625 1.3125 3.5625 -1 2 C-0.67 1.34 -0.34 0.68 0 0 Z " fill="#2E2C36" transform="translate(271,809)"/>
<path d="M0 0 C1.45742463 -0.08096803 2.91612807 -0.13917774 4.375 -0.1875 C5.18710937 -0.22230469 5.99921875 -0.25710938 6.8359375 -0.29296875 C7.55007813 -0.19628906 8.26421875 -0.09960938 9 0 C9.66 0.99 10.32 1.98 11 3 C6.91281305 3.24042276 3.82320557 2.42258812 0 1 C0 0.67 0 0.34 0 0 Z " fill="#0E1225" transform="translate(577,538)"/>
<path d="M0 0 C-0.99 0 -1.98 0 -3 0 C-3 0.99 -3 1.98 -3 3 C-5.64 2.67 -8.28 2.34 -11 2 C-11 1.67 -11 1.34 -11 1 C-3.57142857 -1.42857143 -3.57142857 -1.42857143 0 0 Z " fill="#393B44" transform="translate(622,531)"/>
<path d="M0 0 C0.66 0.33 1.32 0.66 2 1 C-0.64 3.64 -3.28 6.28 -6 9 C-6 6 -6 6 -3.5625 3.375 C-2.716875 2.59125 -1.87125 1.8075 -1 1 C-0.67 0.67 -0.34 0.34 0 0 Z " fill="#9AD5F6" transform="translate(253,455)"/>
<path d="M0 0 C-1.28519565 2.86697492 -2.57129254 4.97607712 -5 7 C-5.66 7 -6.32 7 -7 7 C-3.86206897 0 -3.86206897 0 0 0 Z " fill="#23222D" transform="translate(438,395)"/>
<path d="M0 0 C0.99 0.33 1.98 0.66 3 1 C3 3.97 3 6.94 3 10 C0.70366176 6.55549263 0.45983515 4.06187717 0 0 Z " fill="#191822" transform="translate(973,330)"/>
<path d="M0 0 C2.64 0 5.28 0 8 0 C4.77484237 1.73662334 1.48670834 2.8905928 -2 4 C-1.34 2.68 -0.68 1.36 0 0 Z " fill="#2E2E38" transform="translate(715,287)"/>
<path d="M0 0 C3.25543229 0.34879632 4.01873107 1.02133261 6.25 3.5625 C6.8275 4.366875 7.405 5.17125 8 6 C5 6 5 6 3.61328125 4.6875 C2.40885417 3.125 1.20442708 1.5625 0 0 Z " fill="#38363F" transform="translate(901,207)"/>
<path d="M0 0 C0.66 0.99 1.32 1.98 2 3 C0.35 4.65 -1.3 6.3 -3 8 C-3.66 7.67 -4.32 7.34 -5 7 C-3.35 4.69 -1.7 2.38 0 0 Z " fill="#302F39" transform="translate(197,205)"/>
<path d="M0 0 C3.34373475 0.55728913 6.03312999 1.35173889 9 3 C9 3.66 9 4.32 9 5 C7.68428397 4.7452486 6.37239624 4.47065859 5.0625 4.1875 C4.33160156 4.03667969 3.60070312 3.88585937 2.84765625 3.73046875 C2.23792969 3.48941406 1.62820313 3.24835938 1 3 C0.67 2.01 0.34 1.02 0 0 Z " fill="#151621" transform="translate(787,97)"/>
<path d="M0 0 C2.64 0 5.28 0 8 0 C8 0.66 8 1.32 8 2 C5.36 2.33 2.72 2.66 0 3 C0 2.01 0 1.02 0 0 Z " fill="#181A28" transform="translate(473,70)"/>
<path d="M0 0 C3.25543229 0.34879632 4.01873107 1.02133261 6.25 3.5625 C6.8275 4.366875 7.405 5.17125 8 6 C7.01 6 6.02 6 5 6 C4.731875 5.360625 4.46375 4.72125 4.1875 4.0625 C3.11332248 1.66868314 3.11332248 1.66868314 0 1 C0 0.67 0 0.34 0 0 Z " fill="#20212D" transform="translate(717,932)"/>
<path d="M0 0 C3.375 0.3125 3.375 0.3125 7 1 C7.66 1.99 8.32 2.98 9 4 C5.65626525 3.44271087 2.96687001 2.64826111 0 1 C0 0.67 0 0.34 0 0 Z " fill="#22212C" transform="translate(491,917)"/>
<path d="M0 0 C0.99 0.495 0.99 0.495 2 1 C1.67 2.32 1.34 3.64 1 5 C0.67 5 0.34 5 0 5 C0 3.35 0 1.7 0 0 Z M-2 5 C-1.34 5 -0.68 5 0 5 C-0.66 6.65 -1.32 8.3 -2 10 C-2.5625 8.0625 -2.5625 8.0625 -3 6 C-2.67 5.67 -2.34 5.34 -2 5 Z " fill="#181828" transform="translate(953,675)"/>
<path d="M0 0 C0.33 0 0.66 0 1 0 C1.28571429 8.57142857 1.28571429 8.57142857 -1 12 C-2.11658501 7.31034294 -1.80619523 4.46236469 0 0 Z " fill="#58575C" transform="translate(1017,542)"/>
<path d="M0 0 C-2.39509338 2.89932357 -4.31245243 3.50168276 -8 4 C-8 3.01 -8 2.02 -8 1 C-5.07175348 0.02391783 -3.04386724 -0.08226668 0 0 Z " fill="#1D1E2C" transform="translate(370,335)"/>
<path d="M0 0 C0.66 0.33 1.32 0.66 2 1 C2 3.31 2 5.62 2 8 C1.01 8 0.02 8 -1 8 C-1.04241723 5.66705225 -1.04092937 3.33297433 -1 1 C-0.67 0.67 -0.34 0.34 0 0 Z " fill="#1E1D28" transform="translate(144,313)"/>
<path d="M0 0 C-0.66 1.32 -1.32 2.64 -2 4 C-3.65 3.67 -5.3 3.34 -7 3 C-3.375 0 -3.375 0 0 0 Z M-7 4 C-5 5 -5 5 -5 5 Z " fill="#2F3143" transform="translate(721,273)"/>
<path d="M0 0 C0.99 0 1.98 0 3 0 C2.67 1.65 2.34 3.3 2 5 C1.01 5.33 0.02 5.66 -1 6 C-0.67 4.02 -0.34 2.04 0 0 Z " fill="#201F2B" transform="translate(162,263)"/>
<path d="M0 0 C0.99 0.33 1.98 0.66 3 1 C3 1.66 3 2.32 3 3 C3.66 3 4.32 3 5 3 C5 3.66 5 4.32 5 5 C3.35 4.67 1.7 4.34 0 4 C0 2.68 0 1.36 0 0 Z " fill="#161627" transform="translate(832,115)"/>
<path d="M0 0 C1.27875 -0.061875 2.5575 -0.12375 3.875 -0.1875 C4.95394531 -0.23970703 4.95394531 -0.23970703 6.0546875 -0.29296875 C6.69664062 -0.19628906 7.33859375 -0.09960938 8 0 C8.66 0.99 9.32 1.98 10 3 C6.14354879 3.22036864 3.50776784 2.60355101 0 1 C0 0.67 0 0.34 0 0 Z " fill="#1A1C26" transform="translate(708,77)"/>
<path d="M0 0 C-2.71209558 1.80806372 -4.89366697 3.06810009 -8 4 C-8.99 3.34 -9.98 2.68 -11 2 C-7.17679443 0.57741188 -4.08718695 -0.24042276 0 0 Z " fill="#161723" transform="translate(432,76)"/>
<path d="M0 0 C1.98 1.65 3.96 3.3 6 5 C5.67 5.99 5.34 6.98 5 8 C0 2.25 0 2.25 0 0 Z " fill="#23222C" transform="translate(433,905)"/>
<path d="M0 0 C2.875 -0.125 2.875 -0.125 6 0 C6.66 0.66 7.32 1.32 8 2 C7.01 2.66 6.02 3.32 5 4 C1.125 2.25 1.125 2.25 0 0 Z " fill="#323340" transform="translate(771,810)"/>
<path d="M0 0 C2.31 0 4.62 0 7 0 C7.33 0.66 7.66 1.32 8 2 C2.25 3.125 2.25 3.125 0 2 C0 1.34 0 0.68 0 0 Z " fill="#202131" transform="translate(777,809)"/>
<path d="M0 0 C-2.97 1.65 -5.94 3.3 -9 5 C-8.67 3.68 -8.34 2.36 -8 1 C-4.70594381 -0.82039948 -3.63772813 -1.21257604 0 0 Z " fill="#191929" transform="translate(875,772)"/>
<path d="M0 0 C0.66 0 1.32 0 2 0 C2 1.32 2 2.64 2 4 C2.66 4 3.32 4 4 4 C3.67 4.99 3.34 5.98 3 7 C2.34 7 1.68 7 1 7 C0.67 4.69 0.34 2.38 0 0 Z " fill="#1C1C26" transform="translate(139,614)"/>
<path d="M0 0 C0.33 0 0.66 0 1 0 C1.33 2.97 1.66 5.94 2 9 C1.01 9.495 1.01 9.495 0 10 C-0.74926071 6.33694766 -1.2380014 3.57644848 0 0 Z " fill="#454753" transform="translate(162,570)"/>
<path d="M0 0 C0.33 0 0.66 0 1 0 C1.33 4.29 1.66 8.58 2 13 C-1 10 -1 10 -1.07421875 7.51953125 C-0.94660156 6.62621094 -0.81898438 5.73289062 -0.6875 4.8125 C-0.56761719 3.91144531 -0.44773438 3.01039063 -0.32421875 2.08203125 C-0.21722656 1.39496094 -0.11023438 0.70789063 0 0 Z " fill="#43434D" transform="translate(159,547)"/>
<path d="M0 0 C-2.85306797 2.32472205 -5.54074837 3.7508258 -9 5 C-7.35234966 0.05704899 -4.76872479 -0.25776891 0 0 Z " fill="#26262D" transform="translate(653,528)"/>
<path d="M0 0 C0.99 0 1.98 0 3 0 C2.34 2.97 1.68 5.94 1 9 C0.67 9 0.34 9 0 9 C0 6.03 0 3.06 0 0 Z " fill="#1D1C2B" transform="translate(126,445)"/>
<path d="M0 0 C2.5 2.3125 2.5 2.3125 5 5 C5 5.99 5 6.98 5 8 C2.20127563 5.47211993 0.54226981 3.79588866 0 0 Z " fill="#2F2F36" transform="translate(437,298)"/>
<path d="M0 0 C0.99 0.33 1.98 0.66 3 1 C1.8125 2.5 1.8125 2.5 0 4 C-2.6875 4.1875 -2.6875 4.1875 -5 4 C-3.36587557 2.29159719 -2.13093906 1.06546953 0 0 Z " fill="#353745" transform="translate(707,278)"/>
<path d="M0 0 C0.66 0.33 1.32 0.66 2 1 C0.71937515 2.7074998 -0.61767557 4.37373596 -2 6 C-2.66 6 -3.32 6 -4 6 C-4 4.68 -4 3.36 -4 2 C-2.125 0.9375 -2.125 0.9375 0 0 Z " fill="#21212E" transform="translate(170,253)"/>
<path d="M0 0 C0.99 0.66 1.98 1.32 3 2 C0.69 3.32 -1.62 4.64 -4 6 C-3.6875 4.125 -3.6875 4.125 -3 2 C-2.01 1.34 -1.02 0.68 0 0 Z " fill="#2E2E39" transform="translate(296,158)"/>
<path d="M0 0 C1.32 0.66 2.64 1.32 4 2 C4 2.33 4 2.66 4 3 C0.04 3 -3.92 3 -8 3 C-8 2.67 -8 2.34 -8 2 C-6.865625 1.855625 -5.73125 1.71125 -4.5625 1.5625 C-1.19222799 1.38828522 -1.19222799 1.38828522 0 0 Z " fill="#34343E" transform="translate(630,99)"/>
</svg>
