<svg width="560" height="560" viewBox="0 0 560 560" fill="none" xmlns="http://www.w3.org/2000/svg">
<path d="M534 259.5C534 309.39 513.682 378.004 479.5 413.5C436.3 458.361 371.11 457 298.5 457C242.532 457 172.517 460.446 132.108 432.13C120.705 424.139 50.6765 458.134 42.5 447.5C35.8449 438.845 90.5331 385.942 85.7567 376C68.8728 340.854 63 298.962 63 259.5C63 199.53 84.7526 127.907 132.108 90.5C173.938 57.4582 237.498 47.5 298.5 47.5C368.738 47.5 443.008 72.6713 486.156 115.022C522.907 151.094 534 207.55 534 259.5Z" fill="#E5ECEF"/>
<path d="M41.7589 425.94C51.833 412.02 61.6059 398.326 71.6125 384.804C73.8267 381.812 74.3907 379.405 72.7971 375.836C61.5309 350.607 56.4662 323.886 54.0945 296.523C52.0197 272.586 51.4906 248.586 53.3327 224.677C56.932 177.965 70.183 134.708 102.583 99.2938C118.512 81.883 137.827 68.9359 159.283 59.0969C186.57 46.5836 215.361 40.5664 245.121 38.0182C267.739 36.0814 290.387 35.5671 313.012 36.3528C346.674 37.5218 380.098 40.7254 412.144 52.3624C443.389 63.7085 470.733 81.2093 493.624 105.161C512.181 124.578 523.318 148.396 530.477 174.089C536.262 194.853 538.91 216.029 539.926 237.604C541.487 270.741 539.738 303.537 532.292 335.842C524.799 368.35 511.42 398.034 486.935 421.619C464.723 443.014 437.829 454.921 407.595 459.685C400.037 460.875 392.447 461.923 384.836 462.673C381.548 462.997 381.244 465.038 380.885 467.391C379.729 474.977 378.315 482.455 374.811 489.434C372.784 493.473 369.656 496.693 367.042 500.565C370.737 503.241 374.829 504.852 377.737 508.18C379.835 510.581 381.829 513.006 383.223 515.877C386.028 521.655 384.971 523.535 378.711 523.557C361.714 523.618 344.717 523.625 327.721 523.588C321.411 523.575 320.639 522.495 321.899 516.53C323.875 507.176 329.568 501.105 338.526 498.33C342.455 497.112 344.747 494.994 346.043 491.184C348.368 484.349 349.521 477.342 350.123 470.174C350.471 466.035 349.081 464.523 344.845 464.727C321.706 465.84 298.545 465.582 275.39 465.503C265.903 465.471 256.408 465.212 246.934 464.716C242.379 464.478 241.129 466.286 241.384 470.533C241.876 478.75 243.526 486.647 246.392 494.366C247.285 496.77 249.079 496.993 250.926 497.637C259.186 500.517 265.551 505.49 268.658 513.963C271.249 521.031 269.549 523.556 262.13 523.566C245.3 523.588 228.469 523.588 211.638 523.54C204.551 523.52 203.672 521.871 207.082 515.513C209.834 510.383 213.778 506.443 218.739 503.462C220.425 502.449 222.35 501.737 223.542 499.823C223.288 499.249 223.164 498.52 222.74 498.078C214.664 489.64 212.166 479.011 211.085 467.919C210.736 464.336 209.66 462.939 205.745 462.548C183.151 460.296 160.914 456.344 140.065 446.744C139.007 446.256 137.778 445.961 136.926 445.23C129.994 439.279 122.768 440.484 114.68 442.988C88.928 450.962 62.9741 458.283 37.0931 465.839C33.2375 466.965 21.6223 461.347 20.2019 457.736C19.5211 456.004 20.7098 454.916 21.5737 453.726C28.2259 444.557 34.8849 435.392 41.7589 425.94ZM77.5102 191.069C73.1228 209.273 71.7594 227.863 70.7951 246.465C69.9665 262.448 71.0052 278.411 72.4842 294.341C75.119 322.722 80.7011 350.318 94.2261 375.764C95.8936 378.902 95.557 381.094 93.499 383.875C81.2156 400.47 69.0923 417.185 56.9547 433.888C54.7053 436.983 52.6361 440.209 50.4838 443.375C76.7181 436.589 102.246 429.068 127.712 421.339C131.387 420.223 134.314 420.493 137.555 422.553C156.501 434.598 177.671 440.144 199.612 443.168C228.404 447.136 257.441 446.307 286.378 446.925C308.844 447.404 331.353 446.823 353.818 446.016C372.255 445.354 390.696 444.108 408.823 440.134C453.268 430.392 484.862 404.598 503.689 363.417C514.812 339.086 519.622 313.13 521.26 286.508C523.087 256.83 522.763 227.259 516.791 198.013C507.621 153.098 484.865 116.997 446.752 90.9265C414.79 69.0632 378.561 60.784 340.784 57.9226C319.058 56.2769 297.263 55.7325 275.43 56.4196C255.1 57.0594 234.804 57.909 214.829 61.8388C179.926 68.7052 148.88 83.3461 123.079 108.365C99.6345 131.098 85.5907 158.952 77.5102 191.069Z" fill="#1B4A61"/>
<path d="M196.792 149.558C221.085 156.154 234.568 178.997 227.526 201.064C227.122 202.329 226.635 203.577 226.072 204.779C222.548 212.305 222.533 212.114 214.405 210.565C196.588 207.171 178.938 207.663 161.846 214.249C158.366 215.59 156.772 214.696 154.959 211.916C137.716 185.493 154.127 151.237 185.458 148.601C189.05 148.298 192.738 149.141 196.792 149.558ZM192.579 163.835C189.054 159.611 184.335 158.274 179.155 158.895C174.194 159.489 170.272 162.157 168.931 167.142C167.781 171.414 167.981 175.792 171.719 179.088C176.085 182.938 184.317 183.42 188.97 180.163C194.579 176.237 195.74 171.685 192.579 163.835Z" fill="#252C2F"/>
<path d="M430.045 193.894C429.393 200.999 426.454 206.732 422.927 212.258C421.33 214.759 419.535 215.347 416.63 214.229C398.49 207.249 379.873 207.156 361.168 211.253C357.001 212.166 355.294 211.089 353.527 207.481C340.51 180.899 357.751 149.75 387.044 148.622C414.844 147.55 432.583 171.341 430.045 193.894ZM374.984 180.466C376.375 180.991 377.724 181.717 379.162 182.006C385.614 183.301 391.544 180.693 394.505 175.396C396.749 171.382 396.128 166.49 392.927 162.954C389.34 158.992 382.084 157.56 376.785 159.769C367.999 163.43 366.68 174.249 374.984 180.466Z" fill="#252C2F"/>
<path d="M327.159 260.163C327.836 264.767 325.915 265.049 322.699 263.17C316.326 259.446 309.575 256.824 302.23 255.673C286.84 253.261 272.967 257.83 259.628 264.781C251.191 269.178 243.469 274.683 236.073 280.657C234.649 281.807 233.155 284.089 231.061 281.778C228.971 279.47 231.195 278.205 232.685 276.998C247.957 264.617 264.211 254.111 284.105 250.86C299.52 248.341 313.83 251.333 327.159 260.163Z" fill="#1B4A61"/>
<circle cx="154" cy="266" r="20" fill="url(#paint0_linear_2401_136)"/>
<circle cx="446" cy="266" r="20" fill="url(#paint1_linear_2401_136)"/>
<path d="M348.111 353.147L330.076 314.546L348.174 295.066C351.869 291.441 351.925 285.47 348.299 281.775C344.674 278.081 338.702 278.025 335.008 281.651L290.509 322.651L284.796 325.776L275.197 301.798C275.197 301.798 275.101 301.701 275.198 301.606L275.103 301.509C274.631 300.445 273.967 299.379 273.108 298.504C269.483 294.81 263.512 294.754 259.817 298.379C257.387 300.765 256.489 304.127 257.23 307.217L264.042 351.106C264.042 351.106 264.874 365.177 279.28 379.857C285.386 386.078 288.058 388.8 289.203 389.967C289.203 389.967 306.675 406.409 325.438 387.995L345.367 368.436C349.355 364.332 350.471 358.274 348.111 353.147Z" fill="#1B4A61"/>
<defs>
<linearGradient id="paint0_linear_2401_136" x1="131.576" y1="241.758" x2="174" y2="293.879" gradientUnits="userSpaceOnUse">
<stop stop-color="#64CAFC"/>
<stop offset="1" stop-color="#0082C2"/>
</linearGradient>
<linearGradient id="paint1_linear_2401_136" x1="423.576" y1="241.758" x2="466" y2="293.879" gradientUnits="userSpaceOnUse">
<stop stop-color="#64CAFC"/>
<stop offset="1" stop-color="#0082C2"/>
</linearGradient>
</defs>
</svg>
