<svg width="560" height="560" viewBox="0 0 560 560" fill="none" xmlns="http://www.w3.org/2000/svg">
<path d="M534 259.5C534 309.39 513.682 378.004 479.5 413.5C436.3 458.361 371.11 457 298.5 457C242.532 457 172.517 460.446 132.108 432.13C120.705 424.139 50.6765 458.134 42.5 447.5C35.8449 438.845 90.5331 385.942 85.7567 376C68.8728 340.854 63 298.962 63 259.5C63 199.53 84.7526 127.907 132.108 90.5C173.938 57.4582 237.498 47.5 298.5 47.5C368.738 47.5 443.008 72.6713 486.156 115.022C522.907 151.094 534 207.55 534 259.5Z" fill="#E5ECEF"/>
<path d="M58.6856 188.069C65.2024 153.765 79.9914 123.863 103.174 98.4951C118.003 82.2688 136.087 70.0561 156.039 60.5588C181.595 48.3937 208.517 41.9549 236.552 38.9153C262.293 36.1244 288.075 35.4982 313.858 36.3582C342.97 37.3293 371.997 39.8753 400.102 48.3511C426.532 56.322 450.69 68.7418 472.389 85.8984C487.937 98.1921 501.568 112.133 511.694 129.361C523.835 150.019 531.101 172.362 535.48 195.771C540.217 221.101 541.178 246.712 540.235 272.347C539.056 304.397 534.898 336.017 522.918 366.125C502.468 417.517 465.732 449.27 410.758 458.895C402.078 460.414 393.327 461.539 384.59 462.705C382.502 462.983 380.944 463.622 380.799 465.841C379.95 478.813 376.033 490.57 367.092 500.058C368.089 501.963 369.69 502.239 370.94 502.982C374.714 505.221 378.012 507.984 380.584 511.549C382.742 514.54 385.529 518.123 384.142 521.465C382.569 525.256 377.913 523.491 374.599 523.521C359.102 523.663 343.603 523.618 328.106 523.556C321.167 523.529 320.278 522.127 322.175 515.381C324.622 506.681 329.892 500.61 338.681 498.246C342.998 497.084 344.835 494.409 346.132 490.503C348.19 484.302 349.704 478.031 349.971 471.502C350.247 464.743 350.187 464.61 343.598 464.828C320.781 465.581 297.961 465.796 275.136 465.452C265.811 465.312 256.475 465.248 247.17 464.705C242.332 464.424 241.014 466.359 241.331 470.759C241.908 478.78 243.393 486.567 246.144 494.144C246.98 496.446 248.618 496.881 250.582 497.524C260.063 500.627 266.826 506.56 269.32 516.537C270.599 521.649 269.222 523.502 264.054 523.525C246.223 523.605 228.39 523.625 210.559 523.518C204.987 523.484 204.132 521.774 206.419 516.694C208.976 511.013 213.178 506.894 218.325 503.57C220.107 502.419 222.316 501.83 223.951 499.249C216.653 492.328 213.232 483.284 211.678 473.405C211.627 473.077 211.493 472.763 211.433 472.436C209.652 462.763 209.642 462.863 199.308 461.789C179.681 459.751 160.555 455.602 142.348 447.772C140.515 446.984 138.556 446.285 136.997 445.097C130.101 439.843 123.1 440.29 115.077 442.805C90.325 450.566 65.3438 457.595 40.461 464.939C33.1686 467.091 25.3231 464.538 20.7448 458.559C19.2054 456.549 20.3581 455.219 21.457 453.705C38.0898 430.795 54.6428 407.826 71.4117 385.015C73.7764 381.799 74.1509 379.339 72.5178 375.603C62.4269 352.518 57.3278 328.211 54.7521 303.204C51.9975 276.461 51.6094 249.704 53.3255 222.938C54.0675 211.363 55.927 199.829 58.6856 188.069ZM502.741 365.48C511.994 345.672 517.074 324.653 519.753 303.119C522.8 278.618 522.969 253.981 521.018 229.347C519.448 209.528 516.075 190.105 509.228 171.339C494.442 130.817 467.607 100.877 429.68 80.7994C398.375 64.2273 364.214 58.6687 329.45 57.0881C301.855 55.8335 274.172 55.5047 246.547 57.7332C222.189 59.6982 198.434 63.9716 175.783 73.6639C140.737 88.6594 113.288 112.126 94.7453 145.558C77.3367 176.945 71.9839 211.325 70.7224 246.573C70.0489 265.394 71.2332 284.156 73.3229 302.886C76.1725 328.428 82.2794 352.994 94.2631 375.859C95.9577 379.092 95.4353 381.217 93.4336 383.924C81.9493 399.455 70.5997 415.087 59.2402 430.71C56.2043 434.886 53.294 439.153 49.6055 444.403C52.7655 443.527 54.5164 443.07 56.2508 442.556C80.1874 435.469 104.142 428.44 128.035 421.208C131.57 420.138 134.381 420.532 137.429 422.464C158.179 435.616 181.406 441.277 205.406 443.958C231.917 446.92 258.62 446.444 285.242 446.937C306.883 447.337 328.555 446.684 350.199 446.048C371.15 445.432 392.057 444.178 412.566 439.17C454.099 429.028 483.717 404.342 502.741 365.48Z" fill="#1B4A61"/>
<path d="M200.529 148.831C226.392 154.579 240.742 181.806 230.582 205.438C223.047 222.964 209.35 232.104 190.537 232.59C172.429 233.057 159.318 224.316 151.724 207.905C144.194 191.633 147.733 172.441 160.132 159.192C171.281 147.278 185.091 145.708 200.529 148.831ZM167.621 170.204C168.061 178.092 173.003 183.107 180.068 182.833C188.386 182.511 195.239 176.116 194.894 168.998C194.586 162.639 187.557 157.279 180.187 157.784C174.03 158.205 169.571 162.361 167.621 170.204Z" fill="#252C2F"/>
<path d="M353.015 166.358C368.763 142.387 402.928 140.394 421.543 162.067C438.162 181.414 435.623 208.381 415.025 224.179C397.036 237.977 368.985 236.296 354.258 214.585C343.847 199.235 343.451 182.935 353.015 166.358ZM388.686 159.287C379.401 155.971 370.876 158.829 368.588 166.025C366.368 173.008 368.632 178.374 375.006 181.236C381.95 184.353 390.646 181.628 394.225 175.401C396.869 170.801 395.641 162.415 388.686 159.287Z" fill="#252C2F"/>
<path d="M252.187 285.241C241.274 281.483 231.624 276.353 224.205 267.839C222.578 265.973 218.807 263.454 221.77 260.848C224.709 258.262 226.525 262.308 228.446 264.092C237.228 272.25 247.75 277.109 259.238 279.787C282.218 285.144 305.065 285.263 327.507 276.929C336.345 273.646 344.358 269.011 351.135 262.363C352.679 260.849 354.495 258.893 356.692 260.771C358.951 262.702 357.185 264.796 355.848 266.435C348.111 275.921 337.912 281.814 326.4 285.179C301.866 292.352 277.195 292.339 252.187 285.241Z" fill="#1B4A61"/>
<circle cx="154" cy="280" r="20" fill="url(#paint0_linear_2401_120)"/>
<circle cx="446" cy="280" r="20" fill="url(#paint1_linear_2401_120)"/>
<defs>
<linearGradient id="paint0_linear_2401_120" x1="131.576" y1="255.758" x2="174" y2="307.879" gradientUnits="userSpaceOnUse">
<stop stop-color="#64CAFC"/>
<stop offset="1" stop-color="#0082C2"/>
</linearGradient>
<linearGradient id="paint1_linear_2401_120" x1="423.576" y1="255.758" x2="466" y2="307.879" gradientUnits="userSpaceOnUse">
<stop stop-color="#64CAFC"/>
<stop offset="1" stop-color="#0082C2"/>
</linearGradient>
</defs>
</svg>
